<?xml version="1.0" encoding="UTF-8" standalone="no"?>
<!-- Created with Inkscape (http://www.inkscape.org/) -->

<svg
   xmlns:dc="http://purl.org/dc/elements/1.1/"
   xmlns:cc="http://creativecommons.org/ns#"
   xmlns:rdf="http://www.w3.org/1999/02/22-rdf-syntax-ns#"
   xmlns:svg="http://www.w3.org/2000/svg"
   xmlns="http://www.w3.org/2000/svg"
   xmlns:sodipodi="http://sodipodi.sourceforge.net/DTD/sodipodi-0.dtd"
   xmlns:inkscape="http://www.inkscape.org/namespaces/inkscape"
   width="110mm"
   height="45mm"
   viewBox="0 0 110 45"
   version="1.1"
   id="svg8"
   sodipodi:docname="logo.svg"
   inkscape:version="0.92.3 (2405546, 2018-03-11)">
  <defs
     id="defs2" />
  <sodipodi:namedview
     id="base"
     pagecolor="#757885"
     bordercolor="#666666"
     borderopacity="1.0"
     inkscape:pageopacity="0"
     inkscape:pageshadow="2"
     inkscape:zoom="1.979899"
     inkscape:cx="215.93244"
     inkscape:cy="68.640479"
     inkscape:document-units="mm"
     inkscape:current-layer="layer1"
     showgrid="false"
     showguides="false"
     inkscape:guide-bbox="true"
     inkscape:window-width="1920"
     inkscape:window-height="1003"
     inkscape:window-x="0"
     inkscape:window-y="40"
     inkscape:window-maximized="1"
     inkscape:snap-global="false">
    <sodipodi:guide
       position="56.412947,36.332961"
       orientation="1,0"
       id="guide6903"
       inkscape:locked="false" />
    <sodipodi:guide
       position="58.711598,36.65351"
       orientation="1,0"
       id="guide6905"
       inkscape:locked="false" />
    <sodipodi:guide
       position="54.339236,36.774616"
       orientation="0,1"
       id="guide6944"
       inkscape:locked="false" />
    <sodipodi:guide
       position="54.472871,18.057397"
       orientation="0,1"
       id="guide6946"
       inkscape:locked="false" />
    <sodipodi:guide
       position="57.93067,35.747299"
       orientation="0,1"
       id="guide6950"
       inkscape:locked="false" />
    <sodipodi:guide
       position="57.664993,19.253162"
       orientation="0,1"
       id="guide6952"
       inkscape:locked="false" />
    <sodipodi:guide
       position="106.3058,30.00186"
       orientation="1,0"
       id="guide7338"
       inkscape:locked="false" />
  </sodipodi:namedview>
  <metadata
     id="metadata5">
    <rdf:RDF>
      <cc:Work
         rdf:about="">
        <dc:format>image/svg+xml</dc:format>
        <dc:type
           rdf:resource="http://purl.org/dc/dcmitype/StillImage" />
        <dc:title />
      </cc:Work>
    </rdf:RDF>
  </metadata>
  <g
     inkscape:label="Layer 1"
     inkscape:groupmode="layer"
     id="layer1"
     transform="translate(0,-252)">
    <path
       style="fill:none;fill-opacity:1;stroke:#263056;stroke-width:1.92753255;stroke-linecap:round;stroke-linejoin:miter;stroke-miterlimit:4;stroke-dasharray:none;stroke-opacity:1"
       d="m 23.720198,285.80111 c -6.454223,8.79813 -2.01447,8.33641 -2.01447,8.33641 l 13.337166,0.004"
       id="path6832"
       inkscape:connector-curvature="0"
       sodipodi:nodetypes="ccc" />
    <path
       style="color:#000000;font-style:normal;font-variant:normal;font-weight:normal;font-stretch:normal;font-size:medium;line-height:normal;font-family:sans-serif;font-variant-ligatures:normal;font-variant-position:normal;font-variant-caps:normal;font-variant-numeric:normal;font-variant-alternates:normal;font-feature-settings:normal;text-indent:0;text-align:start;text-decoration:none;text-decoration-line:none;text-decoration-style:solid;text-decoration-color:#000000;letter-spacing:normal;word-spacing:normal;text-transform:none;writing-mode:lr-tb;direction:ltr;text-orientation:mixed;dominant-baseline:auto;baseline-shift:baseline;text-anchor:start;white-space:normal;shape-padding:0;clip-rule:nonzero;display:inline;overflow:visible;visibility:visible;opacity:1;isolation:auto;mix-blend-mode:normal;color-interpolation:sRGB;color-interpolation-filters:linearRGB;solid-color:#000000;solid-opacity:1;vector-effect:none;fill:#263056;fill-opacity:1;fill-rule:nonzero;stroke:none;stroke-width:2.14989066;stroke-linecap:round;stroke-linejoin:round;stroke-miterlimit:4;stroke-dasharray:none;stroke-dashoffset:0;stroke-opacity:1;color-rendering:auto;image-rendering:auto;shape-rendering:auto;text-rendering:auto;enable-background:accumulate"
       d="m 48.148242,281.14525 c -0.0038,1.79087 -1.227097,3.19531 -2.791839,3.19531 H 9.1938922 c -1.564742,0 -2.793546,-1.40443 -2.793546,-3.19531 v -21.35547 c 0,-1.79087 1.228804,-3.19726 2.793546,-3.19726 H 45.356403 c 1.564742,0 2.785931,1.40641 2.791839,3.19726 l 0.0024,0.73923 c -0.05497,0.87133 0.482118,1.37655 0.983252,1.3939 0.501134,0.0173 1.048722,-0.46989 1.025147,-1.326 l -5.45e-4,-0.80715 c -0.002,-3.02529 -2.158812,-5.49804 -4.8021,-5.49804 H 9.1939082 c -2.643288,0 -4.803807,2.47275 -4.803807,5.49804 v 21.35547 c 0,3.02529 2.160519,5.4961 4.803807,5.4961 H 45.356419 c 2.643288,0 4.799782,-2.47081 4.8021,-5.4961 l 5.61e-4,-0.73197 c 0.0018,-0.73601 -0.533034,-1.23358 -1.029285,-1.23139 -0.474278,0.002 -1.011953,0.51208 -0.979114,1.23139"
       id="rect825"
       inkscape:connector-curvature="0"
       sodipodi:nodetypes="cssssssscscsssssssscsc" />
    <g
       aria-label="&lt;/ Haiduk&gt;"
       transform="scale(0.96986117,1.0310754)"
       style="font-style:normal;font-weight:normal;font-size:20.38216019px;line-height:1.25;font-family:sans-serif;letter-spacing:0px;word-spacing:0px;fill:#ffffff;fill-opacity:1;stroke:#ffffff;stroke-width:0.41100001;stroke-linejoin:round;stroke-miterlimit:4;stroke-dasharray:none;stroke-opacity:1"
       id="text6810">
      <path
         d="m 23.235208,259.46531 -6.598326,3.50319 c -0.208997,0.10947 -0.368232,0.38813 -0.368232,0.61703 0,0.22891 0.159235,0.49762 0.35828,0.60709 l 6.598326,3.65247 c 0.08957,0.0498 0.238854,0.0896 0.338376,0.0896 0.388137,0 0.696656,-0.30852 0.696656,-0.69666 0,-0.2289 -0.169188,-0.50756 -0.368233,-0.61704 l -5.463772,-3.02547 5.463772,-2.8961 c 0.208997,-0.10948 0.378185,-0.37819 0.378185,-0.61704 0,-0.38814 -0.308519,-0.69665 -0.696656,-0.69665 -0.109474,0 -0.248806,0.0299 -0.338376,0.0796 z"
         style="font-style:normal;font-variant:normal;font-weight:normal;font-stretch:normal;font-family:Manjari;-inkscape-font-specification:Manjari;fill:#ffffff;fill-opacity:1;stroke:#ffffff;stroke-width:0.41100001;stroke-linejoin:round;stroke-miterlimit:4;stroke-dasharray:none;stroke-opacity:1"
         id="path833" />
      <path
         d="m 33.366575,255.42471 c -0.368232,-0.16919 -0.766321,0.0498 -0.945461,0.39809 l -6.588374,13.23646 c -0.189093,0.39809 0,0.82603 0.427946,1.01513 0.258757,0.11942 0.736464,0.0199 0.885748,-0.29857 2.219346,-4.43869 4.418788,-8.88734 6.628183,-13.33598 0.149283,-0.32843 0.05971,-0.80613 -0.408042,-1.01513 z"
         style="font-style:normal;font-variant:normal;font-weight:normal;font-stretch:normal;font-family:Manjari;-inkscape-font-specification:Manjari;fill:#ffffff;fill-opacity:1;stroke:#ffffff;stroke-width:0.41100001;stroke-linejoin:round;stroke-miterlimit:4;stroke-dasharray:none;stroke-opacity:1"
         id="path835" />
      <path
         d="m 40.064423,255.97208 v 0.10948 c 0.01,4.21974 0.0199,8.44944 0.02986,12.66918 0,0.52747 0.44785,0.96537 0.995223,0.96537 0.557325,0 0.995223,-0.42795 0.995223,-0.96537 l -0.01,-5.07564 7.434314,-0.01 v 5.07564 c 0,0.52747 0.44785,0.94546 0.995222,0.94546 0.547373,0 0.995223,-0.4379 0.995223,-0.96537 l 0.01,-12.64928 c 0,-0.53742 -0.467754,-0.96536 -1.005175,-0.96536 -0.547372,0 -1.025079,0.4379 -0.98527,0.96536 l -0.01,5.5832 -7.444266,0.01 -0.01,-5.59316 c 0,-0.57723 -0.497611,-0.95541 -1.054936,-0.96536 -0.398089,0 -0.935509,0.34833 -0.935509,0.86584 z"
         style="font-style:normal;font-variant:normal;font-weight:bold;font-stretch:normal;line-height:0.25;font-family:Manjari;-inkscape-font-specification:'Manjari Bold';letter-spacing:0px;fill:#ffffff;fill-opacity:1;stroke:#ffffff;stroke-width:0.41100001;stroke-linejoin:round;stroke-miterlimit:4;stroke-dasharray:none;stroke-opacity:1"
         id="path837" />
      <path
         d="m 58.456139,258.64923 c -3.095142,0 -5.45382,2.65724 -5.45382,5.61306 0,2.97571 2.428344,5.56329 5.433916,5.56329 1.333598,0 2.81648,-0.56728 3.513136,-1.75159 l 0.109475,0.79618 c 0,0.54737 0.338375,0.99522 0.885748,0.99522 0.547372,0 0.995222,-0.44785 0.995222,-0.99522 l 0.01991,-9.21576 v -0.0199 c 0,-0.54737 -0.44785,-0.99522 -0.995223,-0.99522 -0.547372,0 -0.885748,0.44785 -0.885748,0.99522 l -0.109474,0.95541 c -0.537421,-0.92555 -2.050159,-1.94068 -3.513137,-1.94068 z m 3.433519,5.59315 c 0,1.92078 -1.532643,3.59276 -3.443471,3.59276 -1.920779,0 -3.473327,-1.67198 -3.473327,-3.60271 0,-1.91083 1.512739,-3.59275 3.463375,-3.59275 1.980493,0 3.453423,1.66202 3.453423,3.6027 z"
         style="font-style:normal;font-variant:normal;font-weight:bold;font-stretch:normal;line-height:0.25;font-family:Manjari;-inkscape-font-specification:'Manjari Bold';letter-spacing:0px;fill:#ffffff;fill-opacity:1;stroke:#ffffff;stroke-width:0.41100001;stroke-linejoin:round;stroke-miterlimit:4;stroke-dasharray:none;stroke-opacity:1"
         id="path839" />
      <path
         d="m 66.975244,257.67391 c 0.547372,0 0.925557,-0.48766 0.925557,-1.00517 l -0.01,-0.59714 c -0.01,-0.53742 -0.437898,-0.98527 -0.995223,-0.98527 -0.417994,0 -0.98527,0.34833 -0.98527,0.84594 l 0.0199,0.75637 c 0.01,0.55733 0.427946,0.98527 1.044984,0.98527 z m -1.074841,1.88097 0.01991,9.30533 c 0,0.52747 0.437898,0.96537 0.995222,0.96537 0.547373,0 0.995223,-0.42794 0.995223,-0.95541 l -0.0199,-9.21576 v -0.01 c 0,-0.56727 -0.477707,-0.94546 -1.054936,-0.94546 -0.398089,0 -0.93551,0.35828 -0.93551,0.85589 z"
         style="font-style:normal;font-variant:normal;font-weight:bold;font-stretch:normal;line-height:0.25;font-family:Manjari;-inkscape-font-specification:'Manjari Bold';letter-spacing:0px;fill:#ffffff;fill-opacity:1;stroke:#ffffff;stroke-width:0.41100001;stroke-linejoin:round;stroke-miterlimit:4;stroke-dasharray:none;stroke-opacity:1"
         id="path841" />
      <path
         d="m 69.353825,264.24238 c 0,2.93591 2.219346,5.53344 5.214967,5.53344 1.234076,0 2.597531,-0.6668 3.3539,-1.75159 l 0.119427,0.80613 c 0.07962,0.53742 0.328423,0.99522 0.875796,0.99522 0.547372,0 0.995222,-0.44785 0.995222,-0.99522 v -12.709 c 0,-0.54737 -0.44785,-0.99522 -0.995222,-0.99522 -0.547373,0 -0.995223,0.44785 -0.995223,0.99522 v 4.18989 c -0.855891,-0.99522 -1.900875,-1.62221 -3.284235,-1.62221 -1.353503,0 -2.667196,0.53742 -3.632562,1.48288 -1.094745,1.08479 -1.65207,2.56768 -1.65207,4.07046 z m 5.195062,3.54299 c -1.841162,0 -3.214569,-1.68192 -3.214569,-3.54299 0,-1.85111 1.38336,-3.59275 3.26433,-3.59275 1.900876,0 3.254378,1.63216 3.254378,3.54299 0,0.92556 -0.338375,1.87102 -0.935509,2.52787 -0.597133,0.65684 -1.502786,1.06488 -2.36863,1.06488 z"
         style="font-style:normal;font-variant:normal;font-weight:bold;font-stretch:normal;line-height:0.25;font-family:Manjari;-inkscape-font-specification:'Manjari Bold';letter-spacing:0px;fill:#ffffff;fill-opacity:1;stroke:#ffffff;stroke-width:0.41100001;stroke-linejoin:round;stroke-miterlimit:4;stroke-dasharray:none;stroke-opacity:1"
         id="path843" />
      <path
         d="m 88.80048,268.25313 0.169188,0.59713 c 0.149284,0.53742 0.417994,0.99523 0.965366,0.99523 0.547373,0 0.855892,-0.44785 0.855892,-0.99523 l -0.0199,-9.14609 c 0,-0.55733 -0.437898,-1.00518 -0.995222,-1.00518 -0.547373,0 -0.995223,0.44785 -0.995223,0.99522 l 0.01,3.97094 c 0.01,2.54777 -1.084793,4.16003 -3.045381,4.16003 -0.816083,0 -1.343551,-0.53742 -1.602309,-1.1246 -0.228901,-0.50756 -0.278662,-1.18431 -0.278662,-1.96059 v -5.02587 c 0,-0.54737 -0.44785,-0.99522 -0.995223,-0.99522 -0.547372,0 -0.995222,0.44785 -0.995222,0.99522 v 5.02587 c 0,0.83599 0.0199,1.81131 0.44785,2.77667 0.547372,1.22413 1.701831,2.29897 3.44347,2.29897 1.333599,0 2.318869,-0.86585 3.035429,-1.5625 z"
         style="font-style:normal;font-variant:normal;font-weight:bold;font-stretch:normal;line-height:0.25;font-family:Manjari;-inkscape-font-specification:'Manjari Bold';letter-spacing:0px;fill:#ffffff;fill-opacity:1;stroke:#ffffff;stroke-width:0.41100001;stroke-linejoin:round;stroke-miterlimit:4;stroke-dasharray:none;stroke-opacity:1"
         id="path845" />
      <path
         d="m 92.691797,256.08156 v 12.70899 c 0,0.54737 0.44785,0.99522 0.995222,0.99522 0.547373,0 0.995223,-0.44785 0.995223,-0.99522 v -2.72691 l 0.845939,-0.8758 3.204617,4.21975 c 0.169188,0.21895 0.517516,0.40804 0.796178,0.40804 0.547374,0 0.995224,-0.44785 0.995224,-0.99522 0,-0.1891 -0.0896,-0.46776 -0.209,-0.61704 l -3.393707,-4.4586 3.224517,-3.3539 c 0.15924,-0.15924 0.28862,-0.47771 0.28862,-0.70661 0,-0.54737 -0.447851,-0.99522 -0.995224,-0.99522 -0.258758,0 -0.567277,0.13933 -0.726512,0.31847 l -4.030652,4.18989 v -7.11584 c 0,-0.54738 -0.44785,-0.99523 -0.995223,-0.99523 -0.547372,0 -0.995222,0.44785 -0.995222,0.99523 z"
         style="font-style:normal;font-variant:normal;font-weight:bold;font-stretch:normal;line-height:0.25;font-family:Manjari;-inkscape-font-specification:'Manjari Bold';letter-spacing:0px;fill:#ffffff;fill-opacity:1;stroke:#ffffff;stroke-width:0.41100001;stroke-linejoin:round;stroke-miterlimit:4;stroke-dasharray:none;stroke-opacity:1"
         id="path847" />
      <path
         d="m 103.05206,259.46531 c -0.0896,-0.0498 -0.2289,-0.0796 -0.33837,-0.0796 -0.38814,0 -0.69666,0.30851 -0.69666,0.69665 0,0.23885 0.16919,0.50756 0.37819,0.61704 l 5.46377,2.8961 -5.46377,3.02547 c -0.19905,0.10948 -0.36824,0.38814 -0.36824,0.61704 0,0.38814 0.30852,0.69666 0.69666,0.69666 0.0995,0 0.24881,-0.0398 0.33838,-0.0896 l 6.59832,-3.65247 c 0.19905,-0.10947 0.35828,-0.37818 0.35828,-0.60709 0,-0.2289 -0.15923,-0.50756 -0.36823,-0.61703 z"
         style="font-style:normal;font-variant:normal;font-weight:normal;font-stretch:normal;font-family:Manjari;-inkscape-font-specification:Manjari;fill:#ffffff;fill-opacity:1;stroke:#ffffff;stroke-width:0.41100001;stroke-linejoin:round;stroke-miterlimit:4;stroke-dasharray:none;stroke-opacity:1"
         id="path849" />
    </g>
    <text
       xml:space="preserve"
       style="font-style:normal;font-weight:normal;font-size:10.58333302px;line-height:1.25;font-family:sans-serif;letter-spacing:0px;word-spacing:0px;fill:#000000;fill-opacity:1;stroke:none;stroke-width:0.26458332"
       x="62.407433"
       y="183.41046"
       id="text6814"><tspan
         sodipodi:role="line"
         id="tspan6812"
         x="62.407433"
         y="192.77423"
         style="stroke-width:0.26458332" /></text>
    <g
       aria-label="art"
       style="font-style:normal;font-weight:normal;font-size:10.58333302px;line-height:1.25;font-family:sans-serif;letter-spacing:0px;word-spacing:0px;fill:#ffffff;fill-opacity:1;stroke:none;stroke-width:0.26458332"
       id="text6822">
      <path
         d="m 86.567276,284.8202 q -1.152385,0 -1.596802,0.26355 -0.444417,0.26355 -0.444417,0.89917 0,0.50643 0.330729,0.80615 0.335897,0.29456 0.909505,0.29456 0.79065,0 1.266073,-0.55811 0.480591,-0.56327 0.480591,-1.49345 v -0.21187 z m 1.896525,-0.39274 v 3.30212 h -0.950846 v -0.8785 q -0.325562,0.5271 -0.81132,0.78032 -0.485759,0.24805 -1.188558,0.24805 -0.888835,0 -1.415934,-0.4961 -0.521932,-0.50126 -0.521932,-1.33842 0,-0.97668 0.651123,-1.47278 0.65629,-0.49609 1.953369,-0.49609 h 1.333252 v -0.093 q 0,-0.65629 -0.434082,-1.01286 -0.428915,-0.36173 -1.209229,-0.36173 -0.496094,0 -0.966349,0.11886 -0.470256,0.11885 -0.904338,0.35656 v -0.8785 q 0.521932,-0.20153 1.012858,-0.29972 0.490926,-0.10335 0.956014,-0.10335 1.255738,0 1.875855,0.65112 0.620117,0.65112 0.620117,1.97404 z"
         style="font-style:normal;font-variant:normal;font-weight:normal;font-stretch:normal;font-family:sans-serif;-inkscape-font-specification:sans-serif;fill:#ffffff;fill-opacity:1;stroke-width:0.26458332"
         id="path852" />
      <path
         d="m 93.781306,282.83066 q -0.160197,-0.093 -0.3514,-0.13436 -0.186035,-0.0465 -0.413412,-0.0465 -0.806152,0 -1.240234,0.5271 -0.428914,0.52193 -0.428914,1.50378 v 3.04891 h -0.956014 v -5.78776 h 0.956014 v 0.89917 q 0.299723,-0.5271 0.780314,-0.78031 0.480591,-0.25838 1.167887,-0.25838 0.09819,0 0.217041,0.0155 0.118856,0.0103 0.26355,0.0362 z"
         style="font-style:normal;font-variant:normal;font-weight:normal;font-stretch:normal;font-family:sans-serif;-inkscape-font-specification:sans-serif;fill:#ffffff;fill-opacity:1;stroke-width:0.26458332"
         id="path854" />
      <path
         d="m 95.729507,280.29851 v 1.64331 h 1.958537 v 0.73898 h -1.958537 v 3.14192 q 0,0.70797 0.191203,0.90951 0.196371,0.20154 0.79065,0.20154 h 0.976684 v 0.79581 H 96.71136 q -1.100708,0 -1.519287,-0.40824 -0.41858,-0.41341 -0.41858,-1.49862 v -3.14192 h -0.697631 v -0.73898 h 0.697631 v -1.64331 z"
         style="font-style:normal;font-variant:normal;font-weight:normal;font-stretch:normal;font-family:sans-serif;-inkscape-font-specification:sans-serif;fill:#ffffff;fill-opacity:1;stroke-width:0.26458332"
         id="path856" />
    </g>
  </g>
</svg>
