<?xml version="1.0" encoding="UTF-8" standalone="no"?>
<!-- Created with Inkscape (http://www.inkscape.org/) -->

<svg
   xmlns:dc="http://purl.org/dc/elements/1.1/"
   xmlns:cc="http://creativecommons.org/ns#"
   xmlns:rdf="http://www.w3.org/1999/02/22-rdf-syntax-ns#"
   xmlns:svg="http://www.w3.org/2000/svg"
   xmlns="http://www.w3.org/2000/svg"
   xmlns:sodipodi="http://sodipodi.sourceforge.net/DTD/sodipodi-0.dtd"
   xmlns:inkscape="http://www.inkscape.org/namespaces/inkscape"
   version="1.1"
   id="svg2"
   xml:space="preserve"
   width="1600"
   height="1600"
   viewBox="0 0 1600 1600"
   sodipodi:docname="serv-bg.svg"
   inkscape:version="0.92.3 (2405546, 2018-03-11)"><metadata
     id="metadata8"><rdf:RDF><cc:Work
         rdf:about=""><dc:format>image/svg+xml</dc:format><dc:type
           rdf:resource="http://purl.org/dc/dcmitype/StillImage" /><dc:title></dc:title></cc:Work></rdf:RDF></metadata><defs
     id="defs6" /><sodipodi:namedview
     pagecolor="#ffffff"
     bordercolor="#666666"
     borderopacity="1"
     objecttolerance="10"
     gridtolerance="10"
     guidetolerance="10"
     inkscape:pageopacity="0"
     inkscape:pageshadow="2"
     inkscape:window-width="1920"
     inkscape:window-height="1003"
     id="namedview4"
     showgrid="false"
     inkscape:zoom="0.295"
     inkscape:cx="977.8136"
     inkscape:cy="972.4806"
     inkscape:window-x="0"
     inkscape:window-y="40"
     inkscape:window-maximized="1"
     inkscape:current-layer="g10" /><g
     id="g10"
     inkscape:groupmode="layer"
     inkscape:label="ink_ext_XXXXXX"
     transform="matrix(1.3333333,0,0,-1.3333333,0,1600)"><path
       inkscape:connector-curvature="0"
       id="path16"
       style="fill:#416cb3;fill-opacity:1;fill-rule:nonzero;stroke:none;stroke-width:0.1;opacity:1"
       d="M 999,600 C 999,379.639 820.361,201 600,201 379.639,201 201,379.639 201,600 c 0,220.361 178.639,399 399,399 220.361,0 399,-178.639 399,-399" /><path
       inkscape:connector-curvature="0"
       id="path36"
       style="fill:#fbda5e;fill-opacity:1;fill-rule:nonzero;stroke:none;stroke-width:0.1"
       d="M 408.451,1012.71 H 561.718 V 908.281 h 123.643 v -3.585 -50.933 h -7.169 V 901.11 H 558.134 554.55 v 3.586 100.844 H 408.451 v 7.17" /><path
       inkscape:connector-curvature="0"
       id="path38"
       style="fill:#fbda5e;fill-opacity:1;fill-rule:nonzero;stroke:none;stroke-width:0.1"
       d="M 290.15,961.242 H 211.284 V 825.355 h -7.169 v 139.471 3.585 h 3.585 82.45 v -7.169" /><path
       inkscape:connector-curvature="0"
       id="path40"
       style="fill:#314059;fill-opacity:1;fill-rule:evenodd;stroke:none;stroke-width:0.1"
       d="m 330.463,788.898 h 597.112 c 12.109,0 22.052,-9.943 22.052,-22.117 V 358.921 H 308.346 v 407.86 c 0,12.174 9.942,22.117 22.117,22.117 v 0" /><path
       inkscape:connector-curvature="0"
       id="path42"
       style="fill:#313a4b;fill-opacity:1;fill-rule:evenodd;stroke:none;stroke-width:0.1"
       d="m 208.984,284.315 h 840.006 c 2.3,0 1.82,1.761 -1.02,3.923 l -90.16,69.33 c -2.839,2.166 -7.035,3.922 -9.334,3.922 H 629.021 309.563 c -2.3,0 -6.493,-1.756 -9.334,-3.922 L 210,288.238 c -2.841,-2.162 -3.315,-3.923 -1.016,-3.923 v 0" /><path
       inkscape:connector-curvature="0"
       id="path44"
       style="fill:#314059;fill-opacity:1;fill-rule:evenodd;stroke:none;stroke-width:0.1"
       d="m 212.367,289.32 c 277.723,0 555.516,0 833.303,0 6.29,0 6.9,-5.139 1.35,-11.498 l -11.29,-12.785 c -5.61,-6.356 -15.35,-11.496 -21.65,-11.496 -256.749,0 -513.438,0 -770.126,0 -6.359,0 -16.098,5.14 -21.644,11.496 l -11.296,12.785 c -5.615,6.359 -5.005,11.498 1.353,11.498 v 0" /><path
       inkscape:connector-curvature="0"
       id="path46"
       style="fill:#687b8f;fill-opacity:1;fill-rule:evenodd;stroke:none;stroke-width:0.1"
       d="m 563.545,322.869 h 130.883 l 19.679,-21.575 H 543.863 l 19.682,21.575" /><path
       inkscape:connector-curvature="0"
       id="path48"
       style="fill:#fce89d;fill-opacity:1;fill-rule:evenodd;stroke:none;stroke-width:0.1"
       d="M 328.502,380.835 H 929.537 V 761.303 H 328.502 V 380.835" /><path
       inkscape:connector-curvature="0"
       id="path50"
       style="fill:#ffffff;fill-opacity:1;fill-rule:evenodd;stroke:none;stroke-width:0.1"
       d="m 989.939,860.46 c 4.736,7.711 7.779,16.166 9.13,24.958 l 26.651,4.6 -7.17,41.327 -26.653,-4.667 c -2.092,3.856 -4.596,7.576 -7.505,11.093 -2.91,3.45 -6.156,6.561 -9.535,9.333 l 9.264,25.365 -39.298,14.475 -9.334,-25.432 c -8.859,0.27 -17.789,-1.217 -26.176,-4.532 l -17.315,20.765 -32.197,-26.921 17.317,-20.696 c -4.735,-7.711 -7.779,-16.233 -9.133,-24.96 l -26.648,-4.667 7.17,-41.258 26.649,4.599 c 2.097,-3.856 4.6,-7.576 7.506,-11.025 2.91,-3.517 6.157,-6.629 9.539,-9.334 l -9.334,-25.433 39.367,-14.405 9.332,25.431 c 8.862,-0.27 17.789,1.217 26.176,4.531 l 17.317,-20.765 32.191,26.853 -17.311,20.765" /><path
       inkscape:connector-curvature="0"
       id="path52"
       style="fill:#323943;fill-opacity:1;fill-rule:evenodd;stroke:none;stroke-width:0.1"
       d="m 959.976,863.639 c 17.45,14.611 19.818,40.583 5.208,58.102 -14.612,17.45 -40.584,19.818 -58.104,5.207 -17.449,-14.609 -19.817,-40.651 -5.207,-58.101 14.61,-17.519 40.584,-19.817 58.103,-5.208 z m -12.986,15.557 c 8.858,7.44 10.078,20.63 2.637,29.491 -7.44,8.928 -20.629,10.078 -29.559,2.705 -8.861,-7.44 -10.078,-20.697 -2.637,-29.557 7.438,-8.861 20.628,-10.079 29.559,-2.639 v 0" /><path
       inkscape:connector-curvature="0"
       id="path54"
       style="fill:#ffffff;fill-opacity:1;fill-rule:evenodd;stroke:none;stroke-width:0.1"
       d="m 819.76,947.239 c -2.504,5.751 -6.156,10.891 -10.62,15.084 l 7.846,17.046 -26.511,12.175 -7.848,-17.045 c -2.978,0.338 -6.088,0.338 -9.268,0.067 -3.11,-0.338 -6.155,-0.948 -9.063,-1.825 l -10.89,15.353 -23.807,-16.842 10.889,-15.354 c -3.586,-4.938 -6.292,-10.619 -7.711,-16.774 l -18.737,-1.691 2.706,-29.017 18.736,1.758 c 2.571,-5.75 6.222,-10.89 10.687,-15.083 l -7.845,-17.112 26.447,-12.108 7.847,17.046 c 3.041,-0.339 6.152,-0.339 9.263,-0.069 3.182,0.271 6.224,0.88 9.134,1.759 l 10.888,-15.286 23.742,16.842 -10.889,15.354 c 3.652,4.937 6.289,10.62 7.708,16.708 l 18.738,1.756 -2.706,29.018 -18.736,-1.76" /><path
       inkscape:connector-curvature="0"
       id="path56"
       style="fill:#323943;fill-opacity:1;fill-rule:evenodd;stroke:none;stroke-width:0.1"
       d="m 806.166,931.345 c -1.488,15.759 -15.422,27.327 -31.182,25.905 -15.76,-1.488 -27.327,-15.421 -25.908,-31.18 1.49,-15.76 15.49,-27.394 31.251,-25.906 15.759,1.488 27.323,15.421 25.839,31.181 z m -14.003,-1.284 c -0.744,7.981 -7.846,13.866 -15.894,13.121 -7.982,-0.744 -13.866,-7.847 -13.122,-15.827 0.744,-7.982 7.846,-13.934 15.828,-13.19 8.048,0.812 13.933,7.846 13.188,15.896 v 0" /><path
       inkscape:connector-curvature="0"
       id="path58"
       style="fill:#ffffff;fill-opacity:1;fill-rule:evenodd;stroke:none;stroke-width:0.1"
       d="m 351.635,1066.28 c -29.085,0 -53.502,-18.66 -60.403,-43.96 -28.271,-3.04 -50.254,-25.568 -50.254,-52.895 0,-29.488 25.5,-53.365 56.883,-53.365 v 0 h 145.424 v 0 c 0.135,0 0.27,0 0.405,0 27.123,0 49.106,20.628 49.106,46.061 0,18.939 -12.243,35.239 -29.626,42.279 0,0.33 0,0.6 0,0.94 0,17.99 -15.557,32.54 -34.698,32.54 -7.44,0 -14.409,-2.24 -20.021,-5.96 -9.809,20.23 -31.587,34.36 -56.816,34.36 v 0" /><path
       inkscape:connector-curvature="0"
       id="path60"
       style="fill:#ffffff;fill-opacity:1;fill-rule:evenodd;stroke:none;stroke-width:0.1"
       d="m 550.356,943.927 c -15.219,0 -27.935,-9.741 -31.52,-22.93 -14.745,-1.624 -26.243,-13.393 -26.243,-27.664 0,-15.354 13.257,-27.799 29.693,-27.799 v 0 h 75.891 v 0 c 0.067,0 0.135,0 0.202,0 14.136,0 25.635,10.754 25.635,24.011 0,9.875 -6.358,18.397 -15.488,22.049 0,0.204 0,0.339 0,0.543 0,9.333 -8.049,16.976 -18.06,16.976 -3.924,0 -7.508,-1.15 -10.485,-3.11 -5.073,10.551 -16.436,17.924 -29.625,17.924 v 0" /><path
       inkscape:connector-curvature="0"
       id="path62"
       style="fill:#ffffff;fill-opacity:1;fill-rule:evenodd;stroke:none;stroke-width:0.1"
       d="m 873.6,345.528 h 201.09 V 604.177 H 873.6 V 345.528" /><path
       inkscape:connector-curvature="0"
       id="path64"
       style="fill:#f04e4d;fill-opacity:1;fill-rule:evenodd;stroke:none;stroke-width:0.1"
       d="m 974.179,643.679 c -6.087,0 -11.026,-4.938 -11.026,-11.027 0,-6.018 4.939,-10.956 11.026,-10.956 6.019,0 10.958,4.938 10.958,10.956 0,6.089 -4.939,11.027 -10.958,11.027 z M 1075.98,604.177 H 872.383 c -4.059,0 -7.305,3.316 -7.305,7.305 v 10.824 c 0,3.99 3.246,7.302 7.305,7.302 h 73.455 c -0.135,1.017 -0.203,2.03 -0.203,3.044 0,15.762 12.783,28.546 28.544,28.546 15.693,0 28.481,-12.784 28.481,-28.546 0,-1.014 -0.07,-2.027 -0.14,-3.044 h 73.46 c 3.98,0 7.3,-3.312 7.3,-7.302 v -10.824 c 0,-3.989 -3.32,-7.305 -7.3,-7.305 v 0" /><path
       inkscape:connector-curvature="0"
       id="path66"
       style="fill:#c12128;fill-opacity:1;fill-rule:evenodd;stroke:none;stroke-width:0.1"
       d="M 1075.98,604.177 H 872.383 c -4.059,0 -7.305,3.316 -7.305,7.305 v 0.067 h 218.202 v -0.067 c 0,-3.989 -3.32,-7.305 -7.3,-7.305 v 0" /><path
       inkscape:connector-curvature="0"
       id="path68"
       style="fill:#d2d3d4;fill-opacity:1;fill-rule:evenodd;stroke:none;stroke-width:0.1"
       d="m 1041.82,345.528 32.87,32.872 -32.87,-0.471 z" /><path
       inkscape:connector-curvature="0"
       id="path70"
       style="fill:#767779;fill-opacity:1;fill-rule:evenodd;stroke:none;stroke-width:0.1"
       d="m 903.225,555.479 h 141.835 v 12.039 H 903.225 v -12.039" /><path
       inkscape:connector-curvature="0"
       id="path72"
       style="fill:#767779;fill-opacity:1;fill-rule:evenodd;stroke:none;stroke-width:0.1"
       d="m 903.225,509.011 h 141.835 v 12.04 H 903.225 v -12.04" /><path
       inkscape:connector-curvature="0"
       id="path74"
       style="fill:#767779;fill-opacity:1;fill-rule:evenodd;stroke:none;stroke-width:0.1"
       d="m 903.225,462.476 h 141.835 v 12.039 H 903.225 v -12.039" /><path
       inkscape:connector-curvature="0"
       id="path76"
       style="fill:#767779;fill-opacity:1;fill-rule:evenodd;stroke:none;stroke-width:0.1"
       d="m 903.225,416.008 h 141.835 v 12.041 H 903.225 v -12.041" /><path
       inkscape:connector-curvature="0"
       id="path78"
       style="fill:#ffffff;fill-opacity:1;fill-rule:evenodd;stroke:none;stroke-width:0.1"
       d="m 147.568,854.17 h 677.331 c 9.404,0 17.045,-7.711 17.045,-17.112 V 451.653 c 0,-9.403 -7.641,-17.114 -17.045,-17.114 H 147.568 c -9.401,0 -17.111,7.711 -17.111,17.114 v 385.405 c 0,9.401 7.71,17.112 17.111,17.112 v 0" /><path
       inkscape:connector-curvature="0"
       id="path80"
       style="fill:#313945;fill-opacity:1;fill-rule:evenodd;stroke:none;stroke-width:0.1"
       d="m 145.472,854.17 h 681.457 c 8.251,0 15.015,-6.764 15.015,-15.016 v -46.13 c 0,-0.675 -0.539,-1.217 -1.216,-1.217 H 130.457 v 47.347 c 0,8.252 6.763,15.016 15.015,15.016 v 0" /><path
       inkscape:connector-curvature="0"
       id="path82"
       style="fill:#f36447;fill-opacity:1;fill-rule:evenodd;stroke:none;stroke-width:0.1"
       d="m 165.629,810.002 c 7.236,0 13.053,6.155 13.053,13.663 0,7.576 -5.817,13.662 -13.053,13.662 -7.171,0 -13.056,-6.086 -13.056,-13.662 0,-7.508 5.885,-13.663 13.056,-13.663 v 0" /><path
       inkscape:connector-curvature="0"
       id="path84"
       style="fill:#81d5dc;fill-opacity:1;fill-rule:evenodd;stroke:none;stroke-width:0.1"
       d="m 202.154,810.002 c 7.168,0 13.053,6.155 13.053,13.663 0,7.576 -5.885,13.662 -13.053,13.662 -7.238,0 -13.055,-6.086 -13.055,-13.662 0,-7.508 5.817,-13.663 13.055,-13.663 v 0" /><path
       inkscape:connector-curvature="0"
       id="path86"
       style="fill:#fbda5e;fill-opacity:1;fill-rule:evenodd;stroke:none;stroke-width:0.1"
       d="m 238.678,810.002 c 7.169,0 13.055,6.155 13.055,13.663 0,7.576 -5.886,13.662 -13.055,13.662 -7.238,0 -13.122,-6.086 -13.122,-13.662 0,-7.508 5.884,-13.663 13.122,-13.663 v 0" /><path
       inkscape:connector-curvature="0"
       id="path88"
       style="fill:#ffffff;fill-opacity:1;fill-rule:evenodd;stroke:none;stroke-width:0.1"
       d="m 271.55,809.258 h 550.171 v 25.906 H 271.55 v -25.906" /><path
       inkscape:connector-curvature="0"
       id="path90"
       style="fill:#cdccca;fill-opacity:1;fill-rule:evenodd;stroke:none;stroke-width:0.1"
       d="m 187.61,747.301 h 152.661 v 20.156 H 187.61 v -20.156" /><path
       inkscape:connector-curvature="0"
       id="path92"
       style="fill:#cdccca;fill-opacity:1;fill-rule:evenodd;stroke:none;stroke-width:0.1"
       d="m 403.58,747.301 h 152.661 v 20.156 H 403.58 v -20.156" /><path
       inkscape:connector-curvature="0"
       id="path94"
       style="fill:#cdccca;fill-opacity:1;fill-rule:evenodd;stroke:none;stroke-width:0.1"
       d="m 620.226,747.301 h 152.661 v 20.156 H 620.226 v -20.156" /><path
       inkscape:connector-curvature="0"
       id="path96"
       style="fill:#fbda5e;fill-opacity:1;fill-rule:evenodd;stroke:none;stroke-width:0.1"
       d="M 183.485,546.956 H 550.763 V 714.158 H 183.485 V 546.956" /><path
       inkscape:connector-curvature="0"
       id="path98"
       style="fill:#f36447;fill-opacity:1;fill-rule:evenodd;stroke:none;stroke-width:0.1"
       d="M 580.997,607.155 H 693.545 V 714.158 H 580.997 V 607.155" /><path
       inkscape:connector-curvature="0"
       id="path100"
       style="fill:#cdccca;fill-opacity:1;fill-rule:evenodd;stroke:none;stroke-width:0.1"
       d="m 180.712,515.978 h 280.632 v 11.497 H 180.712 v -11.497" /><path
       inkscape:connector-curvature="0"
       id="path102"
       style="fill:#cdccca;fill-opacity:1;fill-rule:evenodd;stroke:none;stroke-width:0.1"
       d="M 234.349,494.333 H 514.98 v 11.564 H 234.349 v -11.564" /><path
       inkscape:connector-curvature="0"
       id="path104"
       style="fill:#cdccca;fill-opacity:1;fill-rule:evenodd;stroke:none;stroke-width:0.1"
       d="m 188.964,471.269 h 280.632 v 11.565 H 188.964 v -11.565" /><path
       inkscape:connector-curvature="0"
       id="path106"
       style="fill:#ffffff;fill-opacity:1;fill-rule:evenodd;stroke:none;stroke-width:0.1"
       d="m 660.065,660.657 -22.794,-13.8 -22.793,-13.797 v 55.191 l 22.793,-13.798 22.794,-13.796" /><path
       inkscape:connector-curvature="0"
       id="path108"
       style="fill:#4bc197;fill-opacity:1;fill-rule:evenodd;stroke:none;stroke-width:0.1"
       d="M 580.997,474.042 H 806.098 V 581.045 H 580.997 V 474.042" /><path
       inkscape:connector-curvature="0"
       id="path110"
       style="fill:#fbda5e;fill-opacity:1;fill-rule:evenodd;stroke:none;stroke-width:0.1"
       d="M 693.545,607.155 H 806.098 V 714.158 H 693.545 V 607.155" /><path
       inkscape:connector-curvature="0"
       id="path112"
       style="fill:#313945;fill-opacity:1;fill-rule:evenodd;stroke:none;stroke-width:0.1"
       d="m 462.224,610.604 32.128,12.31 0.947,5.411 -27.867,12.31 -0.947,-5.546 21.306,-9.469 -24.621,-9.471 z m -24.011,-18.873 1.215,6.9 h -19.344 l 10.484,60.874 h -7.507 l -11.77,-67.774 z m -32.4,54.518 -9.403,-54.518 h 7.17 l 11.701,67.774 H 404.73 l -20.088,-54.109 -1.759,54.109 h -10.552 l -11.768,-67.774 h 6.56 l 9.403,54.045 1.893,-53.977 h 7.237 z m -62.77,-54.518 10.553,60.942 h 12.445 l 1.218,6.832 h -32.467 l -1.15,-6.832 h 12.514 l -10.552,-60.942 z m -27.257,30.508 -5.277,-30.508 h 7.576 l 11.703,67.774 h -7.576 l -5.277,-30.504 h -16.639 l 5.277,30.504 h -7.576 l -11.703,-67.774 h 7.577 l 5.275,30.508 z m -48.023,-6.09 -21.306,9.471 24.552,9.469 1.015,5.546 -32.197,-12.31 -0.946,-5.411 27.934,-12.31 0.948,5.545" /><path
       inkscape:connector-curvature="0"
       id="path114"
       style="fill:#ffffff;fill-opacity:1;fill-rule:evenodd;stroke:none;stroke-width:0.1"
       d="m 743.869,514.896 25.162,9.74 0.675,4.33 -22.25,9.669 -0.679,-4.328 17.045,-7.507 -19.277,-7.508 z m -39.567,38.688 2.027,-53.568 h 8.861 l 17.992,53.568 h -5.477 l -15.626,-46.602 -1.759,46.602 z m -10.622,0 -7.981,-53.568 h 5.955 l 8.048,53.568 z m -31.518,-48.159 6.424,42.748 h 6.428 c 4.329,0 6.019,-2.707 5.276,-7.576 l -4.128,-27.596 c -0.742,-4.87 -3.178,-7.576 -7.508,-7.576 z m 1.217,48.159 -7.981,-53.568 h 12.513 c 8.388,0 12.987,5.005 14.204,13.255 l 3.99,26.988 c 1.287,8.251 -1.824,13.325 -10.145,13.325 z m -23.065,-34.292 -17.042,7.508 19.275,7.507 0.607,4.328 -25.161,-9.669 -0.607,-4.33 22.253,-9.74 0.675,4.396" /></g></svg>