<?xml version="1.0" encoding="UTF-8" standalone="no"?>
<!-- Created with Inkscape (http://www.inkscape.org/) -->

<svg
   xmlns:dc="http://purl.org/dc/elements/1.1/"
   xmlns:cc="http://creativecommons.org/ns#"
   xmlns:rdf="http://www.w3.org/1999/02/22-rdf-syntax-ns#"
   xmlns:svg="http://www.w3.org/2000/svg"
   xmlns="http://www.w3.org/2000/svg"
   xmlns:sodipodi="http://sodipodi.sourceforge.net/DTD/sodipodi-0.dtd"
   xmlns:inkscape="http://www.inkscape.org/namespaces/inkscape"
   version="1.1"
   id="svg2"
   xml:space="preserve"
   width="640"
   height="500"
   viewBox="0 0 640 500"
   sodipodi:docname="practise-bg.svg"
   inkscape:version="0.92.3 (2405546, 2018-03-11)"><metadata
     id="metadata8"><rdf:RDF><cc:Work
         rdf:about=""><dc:format>image/svg+xml</dc:format><dc:type
           rdf:resource="http://purl.org/dc/dcmitype/StillImage" /><dc:title></dc:title></cc:Work></rdf:RDF></metadata><defs
     id="defs6"><clipPath
       clipPathUnits="userSpaceOnUse"
       id="clipPath128"><path
         d="M 0,1943.33 H 5000 V 5000 H 0 Z"
         id="path126"
         inkscape:connector-curvature="0" /></clipPath></defs><sodipodi:namedview
     pagecolor="#ffffff"
     bordercolor="#666666"
     borderopacity="1"
     objecttolerance="10"
     gridtolerance="10"
     guidetolerance="10"
     inkscape:pageopacity="0"
     inkscape:pageshadow="2"
     inkscape:window-width="1920"
     inkscape:window-height="1003"
     id="namedview4"
     showgrid="false"
     inkscape:showpageshadow="false"
     inkscape:zoom="1.416"
     inkscape:cx="350.19675"
     inkscape:cy="238.08133"
     inkscape:window-x="0"
     inkscape:window-y="40"
     inkscape:window-maximized="1"
     inkscape:current-layer="g10" /><g
     id="g10"
     inkscape:groupmode="layer"
     inkscape:label="ink_ext_XXXXXX"
     transform="matrix(1.3333333,0,0,-1.3333333,0,499.99999)"><g
       id="g2226"><path
         d="M 0.10647074,-0.36847574 H 481.03862 V 376.22049 H 0.10647074 Z"
         style="fill:#6ac0ed;fill-opacity:1;fill-rule:nonzero;stroke:none;stroke-width:0.08511493"
         id="path14"
         inkscape:connector-curvature="0" /><path
         d="m 405.35651,135.87338 -0.132,0.059 -0.121,0.04 c -0.081,0.028 -0.166,0.055 -0.259,0.08 l -0.124,0.03 c -0.102,0.024 -0.209,0.048 -0.326,0.069 l -0.159,0.027 -0.176,0.031 -0.236,0.03 c -0.314,0.038 -0.669,0.065 -1.051,0.085 -0.361,0.018 -0.743,0.03 -1.16,0.03 h -135.487 c -0.129,0 -0.262,-0.001 -0.395,-0.003 l -0.206,-0.006 -0.157,-0.004 c -0.101,-0.002 -0.198,-0.003 -0.3,-0.006 -0.098,-0.004 -0.198,-0.01 -0.299,-0.015 l -0.122,-0.006 c -0.104,-0.005 -0.209,-0.01 -0.312,-0.015 -0.116,-0.006 -0.236,-0.015 -0.355,-0.024 l -0.045,-0.003 c -0.111,-0.008 -0.222,-0.015 -0.335,-0.024 -0.589,-0.045 -1.188,-0.103 -1.792,-0.174 -0.116,-0.014 -0.232,-0.028 -0.348,-0.043 -0.234,-0.029 -0.466,-0.059 -0.699,-0.092 -0.236,-0.032 -0.47,-0.067 -0.705,-0.102 l -0.153,-0.024 -0.145,-0.024 c -0.287,-0.046 -0.572,-0.094 -0.854,-0.145 l -0.085,-0.014 c -0.423,-0.077 -0.838,-0.16 -1.241,-0.247 -0.339,-0.071 -0.671,-0.146 -0.995,-0.223 -0.125,-0.03 -0.247,-0.061 -0.369,-0.091 -0.202,-0.051 -0.399,-0.102 -0.593,-0.154 l -0.18,-0.047 c -0.104,-0.028 -0.207,-0.058 -0.303,-0.087 -0.102,-0.029 -0.205,-0.06 -0.3,-0.089 -0.302,-0.088 -0.582,-0.179 -0.846,-0.272 l -0.152,-0.055 -0.198,-0.072 -0.176,-0.064 -0.245,-0.096 -0.235,-0.097 -0.229,-0.098 -56.323,-25.358 h 0.006 10e-4 l -4.322,-1.946 c -2.973,-1.338 -1.783,-2.419 2.665,-2.419 h 44.795 c -18.836,-7.651 -32.572,-8.962 -33.045,-9.006 h -0.182 c -0.244,0 -0.573,-0.059 -0.736,-0.132 l -0.252,-0.114 c -0.164,-0.074 -0.098,-0.133 0.146,-0.133 0,0 69.12,0 70.845,0 1.726,0 -6.199,1.677 9.071,9.385 h 44.82 c 4.435,0 10.428,1.081 13.401,2.419 l 60.646,27.304 c 1.761,0.793 2.046,1.494 1.064,1.935"
         style="fill:#4da1de;fill-opacity:1;fill-rule:nonzero;stroke:none;stroke-width:0.1"
         id="path16"
         inkscape:connector-curvature="0" /><path
         d="m 424.35851,124.43138 h -4.601 c 0.09,0.931 1.087,1.663 2.301,1.663 1.215,0 2.21,-0.732 2.3,-1.663"
         style="fill:#4da1de;fill-opacity:1;fill-rule:nonzero;stroke:none;stroke-width:0.1"
         id="path18"
         inkscape:connector-curvature="0" /><path
         d="m 420.21851,94.98338 h 6.642 l 0.027,0.112 c 0.066,0.269 -0.273,0.42 -0.942,0.42 l 37.236,18.596 h -2.514 l -0.663,-0.332 h -83.086 l 0.664,0.332 h -2.514 l -37.235,-18.596 h -0.166 c -0.669,0 -1.614,-0.151 -2.625,-0.42 l -0.423,-0.112 h 6.642 l 0.028,0.112 c 0.065,0.269 -0.274,0.42 -0.943,0.42 l 29.475,14.72 h 83.085 l -29.475,-14.72 h -0.166 c -0.669,0 -1.613,-0.151 -2.624,-0.42 l -0.423,-0.112"
         style="fill:#4da1de;fill-opacity:1;fill-rule:nonzero;stroke:none;stroke-width:0.1"
         id="path20"
         inkscape:connector-curvature="0" /><path
         d="m 338.13051,121.53038 h 4.405 l -4.405,5.458 z"
         style="fill:#ee8918;fill-opacity:1;fill-rule:nonzero;stroke:none;stroke-width:0.1"
         id="path22"
         inkscape:connector-curvature="0" /><path
         d="m 338.13051,127.76438 v -0.776 l 4.405,-5.458 h 5.333 l -5.033,6.234 h -4.705"
         style="fill:#f2f2f2;fill-opacity:1;fill-rule:nonzero;stroke:none;stroke-width:0.1"
         id="path24"
         inkscape:connector-curvature="0" /><path
         d="m 342.83551,127.76438 5.033,-6.234 h 5.33 l -5.032,6.234 h -5.331"
         style="fill:#ee8918;fill-opacity:1;fill-rule:nonzero;stroke:none;stroke-width:0.1"
         id="path26"
         inkscape:connector-curvature="0" /><path
         d="m 348.16651,127.76438 5.032,-6.234 h 5.333 l -5.032,6.234 h -5.333"
         style="fill:#f2f2f2;fill-opacity:1;fill-rule:nonzero;stroke:none;stroke-width:0.1"
         id="path28"
         inkscape:connector-curvature="0" /><path
         d="m 353.49951,127.76438 5.032,-6.234 h 5.333 l -5.033,6.234 h -5.332"
         style="fill:#ee8918;fill-opacity:1;fill-rule:nonzero;stroke:none;stroke-width:0.1"
         id="path30"
         inkscape:connector-curvature="0" /><path
         d="m 358.83151,127.76438 5.033,-6.234 h 5.33 l -5.032,6.234 h -5.331"
         style="fill:#f2f2f2;fill-opacity:1;fill-rule:nonzero;stroke:none;stroke-width:0.1"
         id="path32"
         inkscape:connector-curvature="0" /><path
         d="m 364.16251,127.76438 5.032,-6.234 h 5.333 l -5.033,6.234 h -5.332"
         style="fill:#ee8918;fill-opacity:1;fill-rule:nonzero;stroke:none;stroke-width:0.1"
         id="path34"
         inkscape:connector-curvature="0" /><path
         d="m 369.49451,127.76438 5.033,-6.234 h 5.333 l -5.033,6.234 h -5.333"
         style="fill:#f2f2f2;fill-opacity:1;fill-rule:nonzero;stroke:none;stroke-width:0.1"
         id="path36"
         inkscape:connector-curvature="0" /><path
         d="m 374.82751,127.76438 5.033,-6.234 h 5.33 l -5.032,6.234 h -5.331"
         style="fill:#ee8918;fill-opacity:1;fill-rule:nonzero;stroke:none;stroke-width:0.1"
         id="path38"
         inkscape:connector-curvature="0" /><path
         d="m 380.15851,127.76438 5.032,-6.234 h 5.333 l -5.033,6.234 h -5.332"
         style="fill:#f2f2f2;fill-opacity:1;fill-rule:nonzero;stroke:none;stroke-width:0.1"
         id="path40"
         inkscape:connector-curvature="0" /><path
         d="m 385.49051,127.76438 5.033,-6.234 h 5.332 l -5.032,6.234 h -5.333"
         style="fill:#ee8918;fill-opacity:1;fill-rule:nonzero;stroke:none;stroke-width:0.1"
         id="path42"
         inkscape:connector-curvature="0" /><path
         d="m 390.82351,127.76438 5.032,-6.234 h 5.331 l -5.032,6.234 h -5.331"
         style="fill:#f2f2f2;fill-opacity:1;fill-rule:nonzero;stroke:none;stroke-width:0.1"
         id="path44"
         inkscape:connector-curvature="0" /><path
         d="m 396.15451,127.76438 5.032,-6.234 h 5.333 l -5.033,6.234 h -5.332"
         style="fill:#ee8918;fill-opacity:1;fill-rule:nonzero;stroke:none;stroke-width:0.1"
         id="path46"
         inkscape:connector-curvature="0" /><path
         d="m 401.48651,127.76438 5.033,-6.234 h 5.332 l -5.032,6.234 h -5.333"
         style="fill:#f2f2f2;fill-opacity:1;fill-rule:nonzero;stroke:none;stroke-width:0.1"
         id="path48"
         inkscape:connector-curvature="0" /><path
         d="m 406.81951,127.76438 5.032,-6.234 h 5.331 l -5.032,6.234 h -5.331"
         style="fill:#ee8918;fill-opacity:1;fill-rule:nonzero;stroke:none;stroke-width:0.1"
         id="path50"
         inkscape:connector-curvature="0" /><path
         d="m 412.15051,127.76438 5.032,-6.234 h 5.333 l -5.033,6.234 h -5.332"
         style="fill:#f2f2f2;fill-opacity:1;fill-rule:nonzero;stroke:none;stroke-width:0.1"
         id="path52"
         inkscape:connector-curvature="0" /><path
         d="m 417.48251,127.76438 5.033,-6.234 h 1.149 v 5.183 l -0.849,1.051 h -5.333"
         style="fill:#ee8918;fill-opacity:1;fill-rule:nonzero;stroke:none;stroke-width:0.1"
         id="path54"
         inkscape:connector-curvature="0" /><path
         d="m 423.66451,126.71338 v 1.051 h -0.849 z"
         style="fill:#ffffff;fill-opacity:1;fill-rule:nonzero;stroke:none;stroke-width:0.1"
         id="path56"
         inkscape:connector-curvature="0" /><path
         d="m 339.32751,128.34838 v -33.399 h -2.514 v 33.399 h 2.514"
         style="fill:#1b1c27;fill-opacity:1;fill-rule:nonzero;stroke:none;stroke-width:0.1"
         id="path58"
         inkscape:connector-curvature="0" /><path
         d="m 338.09451,128.34838 v -33.399 h -1.281 v 33.399 h 1.281"
         style="fill:#25273f;fill-opacity:1;fill-rule:nonzero;stroke:none;stroke-width:0.1"
         id="path60"
         inkscape:connector-curvature="0" /><path
         d="m 341.30851,94.69838 h -6.642 c 0,0.517 0.419,0.936 0.936,0.936 h 4.77 c 0.516,0 0.936,-0.419 0.936,-0.936"
         style="fill:#25273f;fill-opacity:1;fill-rule:nonzero;stroke:none;stroke-width:0.1"
         id="path62"
         inkscape:connector-curvature="0" /><path
         d="m 424.92651,128.34838 v -33.399 h -2.514 v 33.399 h 2.514"
         style="fill:#1b1c27;fill-opacity:1;fill-rule:nonzero;stroke:none;stroke-width:0.1"
         id="path64"
         inkscape:connector-curvature="0" /><path
         d="m 423.69351,128.34838 v -33.399 h -1.281 v 33.399 h 1.281"
         style="fill:#25273f;fill-opacity:1;fill-rule:nonzero;stroke:none;stroke-width:0.1"
         id="path66"
         inkscape:connector-curvature="0" /><path
         d="m 426.90751,94.69838 h -6.643 c 0,0.517 0.42,0.936 0.938,0.936 h 4.768 c 0.518,0 0.937,-0.419 0.937,-0.936"
         style="fill:#25273f;fill-opacity:1;fill-rule:nonzero;stroke:none;stroke-width:0.1"
         id="path68"
         inkscape:connector-curvature="0" /><path
         d="m 152.36551,124.43138 h -4.603 c 0.092,0.931 1.087,1.663 2.303,1.663 1.215,0 2.21,-0.732 2.3,-1.663"
         style="fill:#4da1de;fill-opacity:1;fill-rule:nonzero;stroke:none;stroke-width:0.1"
         id="path70"
         inkscape:connector-curvature="0" /><path
         d="m 147.76451,94.98338 h 6.643 l 0.056,0.112 c 0.135,0.269 -0.165,0.42 -0.834,0.42 l 42.018,18.596 h -2.513 l -0.749,-0.332 h -83.086 l 0.749,0.332 h -2.514 l -42.017996,-18.596 h -0.166 c -0.6692,0 -1.652,-0.151 -2.7325,-0.42 l -0.4523,-0.112 h 6.6426 l 0.0562,0.112 c 0.1348,0.269 -0.1656,0.42 -0.8344,0.42 l 33.260396,14.72 h 83.086 l -33.261,-14.72 h -0.166 c -0.669,0 -1.652,-0.151 -2.732,-0.42 l -0.453,-0.112"
         style="fill:#4da1de;fill-opacity:1;fill-rule:nonzero;stroke:none;stroke-width:0.1"
         id="path72"
         inkscape:connector-curvature="0" /><path
         d="m 66.136014,121.53038 h 4.4059 l -4.4059,5.458 z"
         style="fill:#ee8918;fill-opacity:1;fill-rule:nonzero;stroke:none;stroke-width:0.1"
         id="path74"
         inkscape:connector-curvature="0" /><path
         d="m 66.136014,127.76438 v -0.776 l 4.4059,-5.458 h 5.3328 l -5.0324,6.234 h -4.7063"
         style="fill:#f2f2f2;fill-opacity:1;fill-rule:nonzero;stroke:none;stroke-width:0.1"
         id="path76"
         inkscape:connector-curvature="0" /><path
         d="m 70.842314,127.76438 5.0324,-6.234 h 5.3304 l -5.0324,6.234 h -5.3304"
         style="fill:#ee8918;fill-opacity:1;fill-rule:nonzero;stroke:none;stroke-width:0.1"
         id="path78"
         inkscape:connector-curvature="0" /><path
         d="m 76.172714,127.76438 5.0324,-6.234 h 5.3329 l -5.0329,6.234 h -5.3324"
         style="fill:#f2f2f2;fill-opacity:1;fill-rule:nonzero;stroke:none;stroke-width:0.1"
         id="path80"
         inkscape:connector-curvature="0" /><path
         d="m 81.505114,127.76438 5.0329,-6.234 h 5.3325 l -5.0329,6.234 h -5.3325"
         style="fill:#ee8918;fill-opacity:1;fill-rule:nonzero;stroke:none;stroke-width:0.1"
         id="path82"
         inkscape:connector-curvature="0" /><path
         d="m 86.837614,127.76438 5.0329,-6.234 h 5.331 l -5.033,6.234 h -5.3309"
         style="fill:#f2f2f2;fill-opacity:1;fill-rule:nonzero;stroke:none;stroke-width:0.1"
         id="path84"
         inkscape:connector-curvature="0" /><path
         d="m 92.168514,127.76438 5.033,-6.234 h 5.331996 l -5.031996,6.234 h -5.333"
         style="fill:#ee8918;fill-opacity:1;fill-rule:nonzero;stroke:none;stroke-width:0.1"
         id="path86"
         inkscape:connector-curvature="0" /><path
         d="m 97.501514,127.76438 5.031996,-6.234 h 5.333 l -5.033,6.234 h -5.331996"
         style="fill:#f2f2f2;fill-opacity:1;fill-rule:nonzero;stroke:none;stroke-width:0.1"
         id="path88"
         inkscape:connector-curvature="0" /><path
         d="m 102.83351,127.76438 5.033,-6.234 h 5.331 l -5.033,6.234 h -5.331"
         style="fill:#ee8918;fill-opacity:1;fill-rule:nonzero;stroke:none;stroke-width:0.1"
         id="path90"
         inkscape:connector-curvature="0" /><path
         d="m 108.16451,127.76438 5.033,-6.234 h 5.333 l -5.033,6.234 h -5.333"
         style="fill:#f2f2f2;fill-opacity:1;fill-rule:nonzero;stroke:none;stroke-width:0.1"
         id="path92"
         inkscape:connector-curvature="0" /><path
         d="m 113.49751,127.76438 5.033,-6.234 h 5.332 l -5.033,6.234 h -5.332"
         style="fill:#ee8918;fill-opacity:1;fill-rule:nonzero;stroke:none;stroke-width:0.1"
         id="path94"
         inkscape:connector-curvature="0" /><path
         d="m 118.82951,127.76438 5.033,-6.234 h 5.331 l -5.033,6.234 h -5.331"
         style="fill:#f2f2f2;fill-opacity:1;fill-rule:nonzero;stroke:none;stroke-width:0.1"
         id="path96"
         inkscape:connector-curvature="0" /><path
         d="m 124.16051,127.76438 5.033,-6.234 h 5.333 l -5.033,6.234 h -5.333"
         style="fill:#ee8918;fill-opacity:1;fill-rule:nonzero;stroke:none;stroke-width:0.1"
         id="path98"
         inkscape:connector-curvature="0" /><path
         d="m 129.49351,127.76438 5.033,-6.234 h 5.332 l -5.033,6.234 h -5.332"
         style="fill:#f2f2f2;fill-opacity:1;fill-rule:nonzero;stroke:none;stroke-width:0.1"
         id="path100"
         inkscape:connector-curvature="0" /><path
         d="m 134.82551,127.76438 5.033,-6.234 h 5.331 l -5.033,6.234 h -5.331"
         style="fill:#ee8918;fill-opacity:1;fill-rule:nonzero;stroke:none;stroke-width:0.1"
         id="path102"
         inkscape:connector-curvature="0" /><path
         d="m 140.15651,127.76438 5.033,-6.234 h 5.333 l -5.033,6.234 h -5.333"
         style="fill:#f2f2f2;fill-opacity:1;fill-rule:nonzero;stroke:none;stroke-width:0.1"
         id="path104"
         inkscape:connector-curvature="0" /><path
         d="m 145.48951,127.76438 5.033,-6.234 h 1.149 v 5.183 l -0.849,1.051 h -5.333"
         style="fill:#ee8918;fill-opacity:1;fill-rule:nonzero;stroke:none;stroke-width:0.1"
         id="path106"
         inkscape:connector-curvature="0" /><path
         d="m 151.67151,126.71338 v 1.051 h -0.849 z"
         style="fill:#ffffff;fill-opacity:1;fill-rule:nonzero;stroke:none;stroke-width:0.1"
         id="path108"
         inkscape:connector-curvature="0" /><path
         d="m 67.333714,128.34838 v -33.399 h -2.5137 v 33.399 h 2.5137"
         style="fill:#1b1c27;fill-opacity:1;fill-rule:nonzero;stroke:none;stroke-width:0.1"
         id="path110"
         inkscape:connector-curvature="0" /><path
         d="m 66.101214,128.34838 v -33.399 h -1.2812 v 33.399 h 1.2812"
         style="fill:#25273f;fill-opacity:1;fill-rule:nonzero;stroke:none;stroke-width:0.1"
         id="path112"
         inkscape:connector-curvature="0" /><path
         d="m 69.315314,94.69838 h -6.6426 c 0,0.517 0.4196,0.936 0.9363,0.936 h 4.7696 c 0.5172,0 0.9367,-0.419 0.9367,-0.936"
         style="fill:#25273f;fill-opacity:1;fill-rule:nonzero;stroke:none;stroke-width:0.1"
         id="path114"
         inkscape:connector-curvature="0" /><path
         d="m 152.93251,128.34838 v -33.399 h -2.513 v 33.399 h 2.513"
         style="fill:#1b1c27;fill-opacity:1;fill-rule:nonzero;stroke:none;stroke-width:0.1"
         id="path116"
         inkscape:connector-curvature="0" /><path
         d="m 151.69951,128.34838 v -33.399 h -1.28 v 33.399 h 1.28"
         style="fill:#25273f;fill-opacity:1;fill-rule:nonzero;stroke:none;stroke-width:0.1"
         id="path118"
         inkscape:connector-curvature="0" /><path
         d="m 154.91451,94.69838 h -6.643 c 0,0.517 0.42,0.936 0.937,0.936 h 4.769 c 0.517,0 0.937,-0.419 0.937,-0.936"
         style="fill:#25273f;fill-opacity:1;fill-rule:nonzero;stroke:none;stroke-width:0.1"
         id="path120"
         inkscape:connector-curvature="0" /><g
         transform="matrix(0.1,0,0,0.1,-10.176486,-85.26362)"
         id="g122"><g
           id="g124"
           clip-path="url(#clipPath128)"><path
             d="M 4244.24,2380 H 769.098 c -10.547,0 -19.098,8.55 -19.098,19.1 0,10.55 8.551,19.09 19.098,19.09 H 4244.24 c 10.55,0 19.09,-8.54 19.09,-19.09 0,-10.55 -8.54,-19.1 -19.09,-19.1"
             style="fill:#4da1de;fill-opacity:1;fill-rule:nonzero;stroke:none"
             id="path130"
             inkscape:connector-curvature="0" /><path
             d="m 1587.66,2774.94 h -64.12 v 2532.95 h 64.12 V 2774.94"
             style="fill:#4da1de;fill-opacity:1;fill-rule:nonzero;stroke:none"
             id="path132"
             inkscape:connector-curvature="0" /><path
             d="m 1855.01,2774.94 h 64.1289 V 5307.89 H 1855.01 Z"
             style="fill:#4da1de;fill-opacity:1;fill-rule:nonzero;stroke:none"
             id="path134"
             inkscape:connector-curvature="0" /><path
             d="m 1893,4936.33 -21.06,-21.06 -322.27,322.26 21.06,21.06 322.27,-322.26"
             style="fill:#4da1de;fill-opacity:1;fill-rule:nonzero;stroke:none"
             id="path136"
             inkscape:connector-curvature="0" /><path
             d="m 1549.67,4936.33 21.06,-21.06 322.27,322.26 -21.06,21.06 -322.27,-322.26"
             style="fill:#4da1de;fill-opacity:1;fill-rule:nonzero;stroke:none"
             id="path138"
             inkscape:connector-curvature="0" /><path
             d="m 1893,4633.34 -21.06,-21.07 -322.27,322.27 21.06,21.06 322.27,-322.26"
             style="fill:#4da1de;fill-opacity:1;fill-rule:nonzero;stroke:none"
             id="path140"
             inkscape:connector-curvature="0" /><path
             d="m 1549.67,4633.34 21.06,-21.07 322.27,322.27 -21.06,21.06 -322.27,-322.26"
             style="fill:#4da1de;fill-opacity:1;fill-rule:nonzero;stroke:none"
             id="path142"
             inkscape:connector-curvature="0" /><path
             d="m 1893,4330.34 -21.06,-21.05 -322.27,322.26 21.06,21.06 322.27,-322.27"
             style="fill:#4da1de;fill-opacity:1;fill-rule:nonzero;stroke:none"
             id="path144"
             inkscape:connector-curvature="0" /><path
             d="m 1549.67,4330.34 21.06,-21.05 322.27,322.26 -21.06,21.06 -322.27,-322.27"
             style="fill:#4da1de;fill-opacity:1;fill-rule:nonzero;stroke:none"
             id="path146"
             inkscape:connector-curvature="0" /><path
             d="m 1893,4027.36 -21.06,-21.07 -322.27,322.27 21.06,21.05 322.27,-322.25"
             style="fill:#4da1de;fill-opacity:1;fill-rule:nonzero;stroke:none"
             id="path148"
             inkscape:connector-curvature="0" /><path
             d="m 1549.67,4027.36 21.06,-21.07 322.27,322.27 -21.06,21.05 -322.27,-322.25"
             style="fill:#4da1de;fill-opacity:1;fill-rule:nonzero;stroke:none"
             id="path150"
             inkscape:connector-curvature="0" /><path
             d="m 1893,3724.36 -21.06,-21.06 -322.27,322.27 21.06,21.06 322.27,-322.27"
             style="fill:#4da1de;fill-opacity:1;fill-rule:nonzero;stroke:none"
             id="path152"
             inkscape:connector-curvature="0" /><path
             d="m 1549.67,3724.36 21.06,-21.06 322.27,322.27 -21.06,21.06 -322.27,-322.27"
             style="fill:#4da1de;fill-opacity:1;fill-rule:nonzero;stroke:none"
             id="path154"
             inkscape:connector-curvature="0" /><path
             d="m 1893,3421.37 -21.06,-21.06 -322.27,322.26 21.06,21.06 322.27,-322.26"
             style="fill:#4da1de;fill-opacity:1;fill-rule:nonzero;stroke:none"
             id="path156"
             inkscape:connector-curvature="0" /><path
             d="m 1549.67,3421.37 21.06,-21.06 322.27,322.26 -21.06,21.06 -322.27,-322.26"
             style="fill:#4da1de;fill-opacity:1;fill-rule:nonzero;stroke:none"
             id="path158"
             inkscape:connector-curvature="0" /><path
             d="m 1893,3118.38 -21.06,-21.06 -322.27,322.27 21.06,21.06 322.27,-322.27"
             style="fill:#4da1de;fill-opacity:1;fill-rule:nonzero;stroke:none"
             id="path160"
             inkscape:connector-curvature="0" /><path
             d="m 1549.67,3118.38 21.06,-21.06 322.27,322.26 -21.06,21.06 -322.27,-322.26"
             style="fill:#4da1de;fill-opacity:1;fill-rule:nonzero;stroke:none"
             id="path162"
             inkscape:connector-curvature="0" /><path
             d="m 1893,2815.39 -21.06,-21.06 -322.27,322.26 21.06,21.06 322.27,-322.26"
             style="fill:#4da1de;fill-opacity:1;fill-rule:nonzero;stroke:none"
             id="path164"
             inkscape:connector-curvature="0" /><path
             d="m 1549.67,2815.39 21.06,-21.06 322.27,322.26 -21.06,21.06 -322.27,-322.26"
             style="fill:#4da1de;fill-opacity:1;fill-rule:nonzero;stroke:none"
             id="path166"
             inkscape:connector-curvature="0" /><path
             d="m 1886.09,2774.94 h 35.582 v 2532.95 h -35.582 z"
             style="fill:#4da1de;fill-opacity:1;fill-rule:nonzero;stroke:none"
             id="path168"
             inkscape:connector-curvature="0" /><path
             d="m 2070.02,2774.94 h 35.5703 V 5307.89 H 2070.02 Z"
             style="fill:#4da1de;fill-opacity:1;fill-rule:nonzero;stroke:none"
             id="path170"
             inkscape:connector-curvature="0" /><path
             d="m 2091.09,4936.33 -11.69,-21.06 -178.81,322.26 11.69,21.06 178.81,-322.26"
             style="fill:#4da1de;fill-opacity:1;fill-rule:nonzero;stroke:none"
             id="path172"
             inkscape:connector-curvature="0" /><path
             d="m 1900.59,4936.33 11.69,-21.06 178.81,322.26 -11.69,21.06 -178.81,-322.26"
             style="fill:#4da1de;fill-opacity:1;fill-rule:nonzero;stroke:none"
             id="path174"
             inkscape:connector-curvature="0" /><path
             d="m 2091.09,4633.34 -11.69,-21.07 -178.81,322.27 11.69,21.06 178.81,-322.26"
             style="fill:#4da1de;fill-opacity:1;fill-rule:nonzero;stroke:none"
             id="path176"
             inkscape:connector-curvature="0" /><path
             d="m 1900.59,4633.34 11.69,-21.07 178.81,322.27 -11.69,21.06 -178.81,-322.26"
             style="fill:#4da1de;fill-opacity:1;fill-rule:nonzero;stroke:none"
             id="path178"
             inkscape:connector-curvature="0" /><path
             d="m 2091.09,4330.34 -11.69,-21.05 -178.81,322.26 11.69,21.06 178.81,-322.27"
             style="fill:#4da1de;fill-opacity:1;fill-rule:nonzero;stroke:none"
             id="path180"
             inkscape:connector-curvature="0" /><path
             d="m 1900.59,4330.34 11.69,-21.05 178.81,322.26 -11.69,21.06 -178.81,-322.27"
             style="fill:#4da1de;fill-opacity:1;fill-rule:nonzero;stroke:none"
             id="path182"
             inkscape:connector-curvature="0" /><path
             d="m 2091.09,4027.36 -11.69,-21.07 -178.81,322.27 11.69,21.05 178.81,-322.25"
             style="fill:#4da1de;fill-opacity:1;fill-rule:nonzero;stroke:none"
             id="path184"
             inkscape:connector-curvature="0" /><path
             d="m 1900.59,4027.36 11.69,-21.07 178.81,322.27 -11.69,21.05 -178.81,-322.25"
             style="fill:#4da1de;fill-opacity:1;fill-rule:nonzero;stroke:none"
             id="path186"
             inkscape:connector-curvature="0" /><path
             d="m 2091.09,3724.36 -11.69,-21.06 -178.81,322.27 11.69,21.06 178.81,-322.27"
             style="fill:#4da1de;fill-opacity:1;fill-rule:nonzero;stroke:none"
             id="path188"
             inkscape:connector-curvature="0" /><path
             d="m 1900.59,3724.36 11.69,-21.06 178.81,322.27 -11.69,21.06 -178.81,-322.27"
             style="fill:#4da1de;fill-opacity:1;fill-rule:nonzero;stroke:none"
             id="path190"
             inkscape:connector-curvature="0" /><path
             d="m 2091.09,3421.37 -11.69,-21.06 -178.81,322.26 11.69,21.06 178.81,-322.26"
             style="fill:#4da1de;fill-opacity:1;fill-rule:nonzero;stroke:none"
             id="path192"
             inkscape:connector-curvature="0" /><path
             d="m 1900.59,3421.37 11.69,-21.06 178.81,322.26 -11.69,21.06 -178.81,-322.26"
             style="fill:#4da1de;fill-opacity:1;fill-rule:nonzero;stroke:none"
             id="path194"
             inkscape:connector-curvature="0" /><path
             d="m 2091.09,3118.38 -11.69,-21.06 -178.81,322.27 11.69,21.06 178.81,-322.27"
             style="fill:#4da1de;fill-opacity:1;fill-rule:nonzero;stroke:none"
             id="path196"
             inkscape:connector-curvature="0" /><path
             d="m 1900.59,3118.38 11.69,-21.06 178.81,322.27 -11.69,21.06 -178.81,-322.27"
             style="fill:#4da1de;fill-opacity:1;fill-rule:nonzero;stroke:none"
             id="path198"
             inkscape:connector-curvature="0" /><path
             d="m 2091.09,2815.39 -11.69,-21.06 -178.81,322.26 11.69,21.06 178.81,-322.26"
             style="fill:#4da1de;fill-opacity:1;fill-rule:nonzero;stroke:none"
             id="path200"
             inkscape:connector-curvature="0" /><path
             d="m 1900.59,2815.39 11.69,-21.06 178.81,322.26 -11.69,21.06 -178.81,-322.26"
             style="fill:#4da1de;fill-opacity:1;fill-rule:nonzero;stroke:none"
             id="path202"
             inkscape:connector-curvature="0" /><path
             d="m 1460.72,2363.95 h 673.32 v 481.68 h -673.32 z"
             style="fill:#4da1de;fill-opacity:1;fill-rule:nonzero;stroke:none"
             id="path204"
             inkscape:connector-curvature="0" /><path
             d="m 1885.35,2363.95 h 248.688 v 481.68 H 1885.35 Z"
             style="fill:#4da1de;fill-opacity:1;fill-rule:nonzero;stroke:none"
             id="path206"
             inkscape:connector-curvature="0" /><path
             d="m 3604.1,2726.93 c 14.5,-65.13 -26.54,-129.68 -91.67,-144.19 -65.14,-14.49 -129.69,26.55 -144.19,91.68 -14.5,65.13 26.55,129.69 91.68,144.19 65.13,14.5 129.68,-26.54 144.18,-91.68"
             style="fill:#4da1de;fill-opacity:1;fill-rule:nonzero;stroke:none"
             id="path208"
             inkscape:connector-curvature="0" /><path
             d="m 3666.16,2877.19 c 14.5,-65.13 -26.54,-129.68 -91.68,-144.18 -65.12,-14.5 -129.68,26.54 -144.18,91.67 -14.5,65.13 26.55,129.69 91.68,144.19 65.13,14.5 129.68,-26.55 144.18,-91.68"
             style="fill:#4da1de;fill-opacity:1;fill-rule:nonzero;stroke:none"
             id="path210"
             inkscape:connector-curvature="0" /><path
             d="m 3708.73,3000.54 c 14.5,-65.13 -26.54,-129.69 -91.67,-144.19 -65.14,-14.5 -129.69,26.55 -144.19,91.68 -14.5,65.13 26.54,129.68 91.67,144.18 65.14,14.5 129.69,-26.54 144.19,-91.67"
             style="fill:#4da1de;fill-opacity:1;fill-rule:nonzero;stroke:none"
             id="path212"
             inkscape:connector-curvature="0" /><path
             d="m 3784.39,2915.21 c 14.51,-65.13 -26.54,-129.68 -91.67,-144.18 -65.13,-14.5 -129.68,26.54 -144.18,91.67 -14.51,65.13 26.54,129.69 91.67,144.19 65.13,14.5 129.69,-26.55 144.18,-91.68"
             style="fill:#4da1de;fill-opacity:1;fill-rule:nonzero;stroke:none"
             id="path214"
             inkscape:connector-curvature="0" /><path
             d="m 3782.4,2731.54 c 14.5,-65.13 -26.54,-129.68 -91.67,-144.19 -65.13,-14.49 -129.69,26.55 -144.19,91.68 -14.5,65.13 26.55,129.69 91.68,144.19 65.13,14.49 129.69,-26.55 144.18,-91.68"
             style="fill:#4da1de;fill-opacity:1;fill-rule:nonzero;stroke:none"
             id="path216"
             inkscape:connector-curvature="0" /><path
             d="m 3591.75,2401.85 v 0 c -4.73,0 -8.56,3.83 -8.56,8.56 v 439.51 c 0,4.73 3.83,8.57 8.56,8.57 4.73,0 8.56,-3.84 8.56,-8.57 v -439.51 c 0,-4.73 -3.83,-8.56 -8.56,-8.56"
             style="fill:#4296cb;fill-opacity:1;fill-rule:nonzero;stroke:none"
             id="path218"
             inkscape:connector-curvature="0" /><path
             d="m 3588.22,2634.25 v 0 c -3.34,3.34 -3.34,8.77 0,12.11 l 46.95,46.94 c 3.34,3.34 8.77,3.34 12.11,0 3.34,-3.34 3.34,-8.76 0,-12.11 l -46.95,-46.94 c -3.34,-3.34 -8.76,-3.34 -12.11,0"
             style="fill:#4296cb;fill-opacity:1;fill-rule:nonzero;stroke:none"
             id="path220"
             inkscape:connector-curvature="0" /><path
             d="m 3596.86,2775.05 v 0 c 3.34,3.34 3.34,8.76 0,12.1 l -46.95,46.95 c -3.34,3.34 -8.76,3.34 -12.11,0 -3.34,-3.35 -3.34,-8.77 0,-12.11 l 46.95,-46.94 c 3.34,-3.35 8.77,-3.35 12.11,0"
             style="fill:#4296cb;fill-opacity:1;fill-rule:nonzero;stroke:none"
             id="path222"
             inkscape:connector-curvature="0" /><path
             d="m 1073.65,2747.9 c 17.68,-79.41 -32.37,-158.12 -111.779,-175.81 -79.414,-17.67 -158.125,32.37 -175.808,111.79 -17.68,79.41 32.371,158.12 111.785,175.8 79.414,17.68 158.122,-32.37 175.802,-111.78"
             style="fill:#4da1de;fill-opacity:1;fill-rule:nonzero;stroke:none"
             id="path224"
             inkscape:connector-curvature="0" /><path
             d="m 1149.32,2931.11 c 17.68,-79.41 -32.37,-158.12 -111.78,-175.8 -79.415,-17.68 -158.126,32.37 -175.806,111.78 -17.679,79.41 32.368,158.12 111.782,175.8 79.414,17.68 158.124,-32.36 175.804,-111.78"
             style="fill:#4da1de;fill-opacity:1;fill-rule:nonzero;stroke:none"
             id="path226"
             inkscape:connector-curvature="0" /><path
             d="m 1240.66,3076.87 c 17.68,-79.42 -32.37,-158.13 -111.78,-175.81 -79.42,-17.68 -158.122,32.37 -175.806,111.78 -17.679,79.42 32.364,158.13 111.776,175.8 79.42,17.68 158.13,-32.36 175.81,-111.77"
             style="fill:#4da1de;fill-opacity:1;fill-rule:nonzero;stroke:none"
             id="path228"
             inkscape:connector-curvature="0" /><path
             d="m 1321.32,2947.31 c 17.68,-79.41 -32.36,-158.13 -111.78,-175.81 -79.41,-17.68 -158.12,32.37 -175.8,111.79 -17.69,79.41 32.36,158.12 111.78,175.8 79.41,17.68 158.12,-32.37 175.8,-111.78"
             style="fill:#4da1de;fill-opacity:1;fill-rule:nonzero;stroke:none"
             id="path230"
             inkscape:connector-curvature="0" /><path
             d="m 1248.13,2705.96 c 17.68,-79.41 -32.36,-158.12 -111.78,-175.8 -79.41,-17.68 -158.12,32.36 -175.799,111.78 -17.68,79.41 32.363,158.12 111.779,175.8 79.41,17.68 158.12,-32.36 175.8,-111.78"
             style="fill:#4da1de;fill-opacity:1;fill-rule:nonzero;stroke:none"
             id="path232"
             inkscape:connector-curvature="0" /><path
             d="m 1395.44,2751.2 c 17.69,-79.41 -32.36,-158.12 -111.77,-175.8 -79.42,-17.69 -158.13,32.36 -175.81,111.78 -17.68,79.41 32.37,158.12 111.78,175.8 79.42,17.68 158.12,-32.36 175.8,-111.78"
             style="fill:#4da1de;fill-opacity:1;fill-rule:nonzero;stroke:none"
             id="path234"
             inkscape:connector-curvature="0" /><path
             d="m 1093.39,2379.37 v 0 c -5.77,0 -10.44,4.67 -10.44,10.43 v 535.9 c 0,5.76 4.67,10.44 10.44,10.44 5.77,0 10.44,-4.68 10.44,-10.44 v -535.9 c 0,-5.76 -4.67,-10.43 -10.44,-10.43"
             style="fill:#4296cb;fill-opacity:1;fill-rule:nonzero;stroke:none"
             id="path236"
             inkscape:connector-curvature="0" /><path
             d="m 1089.09,2662.73 v 0 c -4.08,4.08 -4.08,10.69 0,14.77 l 57.23,57.23 c 4.08,4.08 10.69,4.08 14.76,0 4.08,-4.08 4.08,-10.69 0,-14.76 l -57.23,-57.24 c -4.07,-4.07 -10.69,-4.07 -14.76,0"
             style="fill:#4296cb;fill-opacity:1;fill-rule:nonzero;stroke:none"
             id="path238"
             inkscape:connector-curvature="0" /><path
             d="m 1099.61,2834.4 v 0 c 4.08,4.08 4.08,10.69 0,14.77 l -57.23,57.23 c -4.08,4.08 -10.69,4.08 -14.77,0 -4.07,-4.08 -4.07,-10.69 0,-14.76 l 57.23,-57.24 c 4.08,-4.07 10.69,-4.07 14.77,0"
             style="fill:#4296cb;fill-opacity:1;fill-rule:nonzero;stroke:none"
             id="path240"
             inkscape:connector-curvature="0" /></g></g><path
         d="m 335.94051,294.58538 h -54.575 c 0.387,3.868 3.636,6.878 7.597,6.897 0.423,3.831 3.672,6.816 7.614,6.816 2.654,0 4.99,-1.342 6.369,-3.395 1.318,1.072 2.992,1.716 4.825,1.716 1.882,0 3.605,-0.687 4.942,-1.815 1.403,1.668 3.507,2.735 5.86,2.735 3.556,0 6.542,-2.434 7.406,-5.72 0.724,0.227 1.496,0.349 2.299,0.349 4.212,0 7.62,-3.384 7.663,-7.583"
         style="fill:#4da1de;fill-opacity:1;fill-rule:nonzero;stroke:none;stroke-width:0.1"
         id="path242"
         inkscape:connector-curvature="0" /><path
         d="m 409.39751,248.29538 h -48.101 c 0.551,3.69 3.74,6.516 7.578,6.516 0.589,0 1.165,-0.073 1.717,-0.202 0.961,3.133 3.879,5.414 7.326,5.414 1.949,0 3.72,-0.736 5.076,-1.938 0.975,0.448 2.054,0.711 3.2,0.711 2.434,0 4.598,-1.14 6.002,-2.912 1.25,2.539 3.856,4.286 6.872,4.286 4.231,0 7.663,-3.427 7.663,-7.663 0,-0.528 -0.054,-1.049 -0.159,-1.545 1.152,-0.632 2.134,-1.552 2.826,-2.667"
         style="fill:#4da1de;fill-opacity:1;fill-rule:nonzero;stroke:none;stroke-width:0.1"
         id="path244"
         inkscape:connector-curvature="0" /><path
         d="M 126.82751,283.19738 H 91.711514 c 0.398,2.784 2.299,5.083 4.849,6.058 1.189,2.703 3.880996,4.591 7.025996,4.591 2.372,0 4.5,-1.078 5.904,-2.777 1.397,1.459 3.359,2.373 5.536,2.373 3.464,0 6.388,-2.299 7.338,-5.456 2.115,-0.846 3.771,-2.606 4.463,-4.789"
         style="fill:#4da1de;fill-opacity:1;fill-rule:nonzero;stroke:none;stroke-width:0.1"
         id="path246"
         inkscape:connector-curvature="0" /><path
         d="m 121.78351,135.20838 h -9.57 c 0.191,1.933 2.26,3.458 4.787,3.458 2.527,0 4.597,-1.525 4.783,-3.458"
         style="fill:#4da1de;fill-opacity:1;fill-rule:nonzero;stroke:none;stroke-width:0.1"
         id="path248"
         inkscape:connector-curvature="0" /><path
         d="m 386.27351,36.60438 h -16.988 c 0.338,3.434 4.013,6.139 8.498,6.139 4.485,0 8.16,-2.705 8.49,-6.139"
         style="fill:#4da1de;fill-opacity:1;fill-rule:nonzero;stroke:none;stroke-width:0.1"
         id="path250"
         inkscape:connector-curvature="0" /><path
         d="m 401.38451,36.60438 h -24.599 c 0.49,4.972 5.809,8.889 12.305,8.889 6.495,0 11.815,-3.917 12.294,-8.889"
         style="fill:#4da1de;fill-opacity:1;fill-rule:nonzero;stroke:none;stroke-width:0.1"
         id="path252"
         inkscape:connector-curvature="0" /><path
         d="m 388.93551,115.98638 h -6.226 c 0.123,1.259 1.469,2.25 3.114,2.25 1.645,0 2.991,-0.991 3.112,-2.25"
         style="fill:#4da1de;fill-opacity:1;fill-rule:nonzero;stroke:none;stroke-width:0.1"
         id="path254"
         inkscape:connector-curvature="0" /><path
         d="m 109.39551,104.86038 h -6.226 c 0.124,1.259 1.47,2.25 3.114,2.25 1.644,0 2.991,-0.991 3.112,-2.25"
         style="fill:#4da1de;fill-opacity:1;fill-rule:nonzero;stroke:none;stroke-width:0.1"
         id="path256"
         inkscape:connector-curvature="0" /><path
         d="m 157.20651,102.39238 v 0 c 0.142,-0.084 0.327,-0.036 0.411,0.106 l 1.894,3.203 c 0.084,0.141 0.037,0.326 -0.105,0.41 -0.142,0.084 -0.326,0.036 -0.41,-0.105 l -1.895,-3.203 c -0.084,-0.141 -0.036,-0.327 0.105,-0.411"
         style="fill:#4da1de;fill-opacity:1;fill-rule:nonzero;stroke:none;stroke-width:0.1"
         id="path258"
         inkscape:connector-curvature="0" /><path
         d="m 157.40451,102.39138 v 0 c 0.16,0.041 0.257,0.205 0.216,0.366 l -0.925,3.604 c -0.041,0.159 -0.205,0.257 -0.365,0.216 -0.159,-0.041 -0.257,-0.205 -0.215,-0.365 l 0.924,-3.604 c 0.041,-0.16 0.205,-0.257 0.365,-0.217"
         style="fill:#4da1de;fill-opacity:1;fill-rule:nonzero;stroke:none;stroke-width:0.1"
         id="path260"
         inkscape:connector-curvature="0" /><path
         d="m 157.19651,102.45438 v 0 c 0.07,-0.1 0.208,-0.124 0.307,-0.054 l 2.242,1.575 c 0.099,0.07 0.123,0.208 0.053,0.308 -0.069,0.099 -0.208,0.123 -0.307,0.054 l -2.241,-1.577 c -0.1,-0.069 -0.124,-0.208 -0.054,-0.306"
         style="fill:#4da1de;fill-opacity:1;fill-rule:nonzero;stroke:none;stroke-width:0.1"
         id="path262"
         inkscape:connector-curvature="0" /><path
         d="m 381.66251,99.144376 v 0 c 0.141,-0.084 0.327,-0.036 0.411,0.106 l 1.895,3.202004 c 0.084,0.142 0.036,0.327 -0.106,0.411 -0.142,0.084 -0.326,0.036 -0.41,-0.106 l -1.896,-3.202004 c -0.084,-0.142 -0.036,-0.327 0.106,-0.411"
         style="fill:#4da1de;fill-opacity:1;fill-rule:nonzero;stroke:none;stroke-width:0.1"
         id="path264"
         inkscape:connector-curvature="0" /><path
         d="m 381.86051,99.143376 v 0 c 0.159,0.041 0.257,0.205 0.216,0.365 l -0.925,3.605004 c -0.041,0.159 -0.205,0.257 -0.365,0.216 -0.159,-0.041 -0.257,-0.205 -0.216,-0.365 l 0.925,-3.605004 c 0.041,-0.159 0.205,-0.257 0.365,-0.216"
         style="fill:#4da1de;fill-opacity:1;fill-rule:nonzero;stroke:none;stroke-width:0.1"
         id="path266"
         inkscape:connector-curvature="0" /><path
         d="m 381.65251,99.206376 v 0 c 0.069,-0.1 0.208,-0.124 0.307,-0.054 l 2.241,1.575004 c 0.1,0.07 0.124,0.208 0.054,0.307 -0.07,0.099 -0.208,0.124 -0.307,0.054 l -2.242,-1.576004 c -0.099,-0.069 -0.123,-0.208 -0.053,-0.306"
         style="fill:#4da1de;fill-opacity:1;fill-rule:nonzero;stroke:none;stroke-width:0.1"
         id="path268"
         inkscape:connector-curvature="0" /><path
         d="m 105.21451,64.03238 v 0 c 0.45,-0.044 0.856,0.288 0.901,0.739 l 1.005,10.184 c 0.045,0.451 -0.288,0.856 -0.739,0.901 -0.451,0.044 -0.856,-0.288 -0.901,-0.739 l -1.006,-10.184 c -0.044,-0.451 0.288,-0.856 0.74,-0.901"
         style="fill:#4da1de;fill-opacity:1;fill-rule:nonzero;stroke:none;stroke-width:0.1"
         id="path270"
         inkscape:connector-curvature="0" /><path
         d="m 105.70751,64.25938 v 0 c 0.351,0.288 0.403,0.81 0.115,1.161 l -6.489996,7.912 c -0.287,0.349 -0.809,0.401 -1.159,0.114 -0.351,-0.287 -0.403,-0.81 -0.115,-1.16 l 6.489996,-7.912 c 0.287,-0.35 0.809,-0.402 1.159,-0.115"
         style="fill:#4da1de;fill-opacity:1;fill-rule:nonzero;stroke:none;stroke-width:0.1"
         id="path272"
         inkscape:connector-curvature="0" /><path
         d="m 105.11651,64.17238 v 0 c 0.29,-0.166 0.663,-0.066 0.829,0.223 l 3.759,6.529 c 0.167,0.29 0.066,0.662 -0.223,0.829 -0.289,0.166 -0.662,0.066 -0.828,-0.224 l -3.759,-6.528 c -0.167,-0.289 -0.067,-0.662 0.222,-0.829"
         style="fill:#4da1de;fill-opacity:1;fill-rule:nonzero;stroke:none;stroke-width:0.1"
         id="path274"
         inkscape:connector-curvature="0" /><path
         d="m 385.35051,67.99638 v 0 c 0.336,0.091 0.537,0.44 0.446,0.776 l -2.056,7.592 c -0.092,0.337 -0.441,0.537 -0.777,0.446 -0.336,-0.092 -0.537,-0.441 -0.447,-0.777 l 2.057,-7.592 c 0.091,-0.336 0.44,-0.537 0.777,-0.445"
         style="fill:#4da1de;fill-opacity:1;fill-rule:nonzero;stroke:none;stroke-width:0.1"
         id="path276"
         inkscape:connector-curvature="0" /><path
         d="m 385.64351,68.29438 v 0 c 0.173,0.301 0.068,0.691 -0.234,0.864 l -6.822,3.914 c -0.303,0.174 -0.692,0.068 -0.866,-0.233 -0.172,-0.303 -0.067,-0.692 0.235,-0.866 l 6.822,-3.914 c 0.303,-0.173 0.691,-0.067 0.865,0.235"
         style="fill:#4da1de;fill-opacity:1;fill-rule:nonzero;stroke:none;stroke-width:0.1"
         id="path278"
         inkscape:connector-curvature="0" /><path
         d="m 385.24351,68.06938 v 0 c 0.253,-0.04 0.493,0.134 0.534,0.387 l 0.919,5.717 c 0.041,0.253 -0.133,0.494 -0.387,0.535 -0.253,0.04 -0.493,-0.134 -0.534,-0.387 l -0.919,-5.717 c -0.041,-0.254 0.133,-0.494 0.387,-0.535"
         style="fill:#4da1de;fill-opacity:1;fill-rule:nonzero;stroke:none;stroke-width:0.1"
         id="path280"
         inkscape:connector-curvature="0" /><path
         d="m 182.90051,95.73238 v 0 c 0.266,-0.157 0.612,-0.068 0.77,0.197 l 3.552,6.005 c 0.158,0.266 0.069,0.613 -0.197,0.77 -0.266,0.157 -0.612,0.068 -0.77,-0.197 l -3.553,-6.005 c -0.157,-0.266 -0.068,-0.613 0.198,-0.77"
         style="fill:#4da1de;fill-opacity:1;fill-rule:nonzero;stroke:none;stroke-width:0.1"
         id="path282"
         inkscape:connector-curvature="0" /><path
         d="m 183.27151,95.73038 v 0 c 0.299,0.077 0.481,0.385 0.405,0.684 l -1.734,6.759 c -0.077,0.298 -0.385,0.481 -0.684,0.404 -0.3,-0.077 -0.482,-0.385 -0.405,-0.684 l 1.734,-6.759 c 0.077,-0.298 0.384,-0.481 0.684,-0.404"
         style="fill:#4da1de;fill-opacity:1;fill-rule:nonzero;stroke:none;stroke-width:0.1"
         id="path284"
         inkscape:connector-curvature="0" /><path
         d="m 182.88151,95.84638 v 0 c 0.13,-0.186 0.39,-0.231 0.576,-0.1 l 4.202,2.952996 c 0.186,0.131 0.232,0.391 0.101,0.576 -0.131,0.187 -0.39,0.232 -0.576,0.101 l -4.203,-2.952996 c -0.186,-0.131 -0.231,-0.391 -0.1,-0.577"
         style="fill:#4da1de;fill-opacity:1;fill-rule:nonzero;stroke:none;stroke-width:0.1"
         id="path286"
         inkscape:connector-curvature="0" /><path
         d="m 456.88351,98.610376 v 0 c 0.308,0.023 0.542,0.294 0.518,0.603 l -0.517,6.958004 c -0.023,0.307 -0.294,0.541 -0.602,0.518 -0.309,-0.023 -0.542,-0.294 -0.519,-0.602 l 0.518,-6.958004 c 0.022,-0.308 0.294,-0.541 0.602,-0.519"
         style="fill:#4da1de;fill-opacity:1;fill-rule:nonzero;stroke:none;stroke-width:0.1"
         id="path288"
         inkscape:connector-curvature="0" /><path
         d="m 457.18851,98.821376 v 0 c 0.201,0.234 0.175,0.591 -0.059,0.792 l -5.286,4.554004 c -0.234,0.202 -0.59,0.175 -0.792,-0.059 -0.203,-0.234 -0.175,-0.591 0.058,-0.792 l 5.286,-4.554004 c 0.235,-0.202 0.591,-0.175 0.793,0.059"
         style="fill:#4da1de;fill-opacity:1;fill-rule:nonzero;stroke:none;stroke-width:0.1"
         id="path290"
         inkscape:connector-curvature="0" /><path
         d="m 456.80251,98.693376 v 0 c 0.213,-0.078 0.452,0.033 0.53,0.246 l 1.76,4.826004 c 0.078,0.214 -0.034,0.453 -0.248,0.531 -0.213,0.078 -0.452,-0.034 -0.53,-0.247 l -1.76,-4.826004 c -0.078,-0.214 0.034,-0.453 0.248,-0.53"
         style="fill:#4da1de;fill-opacity:1;fill-rule:nonzero;stroke:none;stroke-width:0.1"
         id="path292"
         inkscape:connector-curvature="0" /><path
         d="m 128.40751,97.43538 v 0 c 0.309,-10e-4 0.563,0.25 0.565,0.559996 l 0.035,6.976004 c 0.002,0.31 -0.25,0.564 -0.559,0.565 -0.309,0.002 -0.563,-0.25 -0.565,-0.559 l -0.035,-6.976004 c -0.002,-0.309996 0.25,-0.563996 0.559,-0.565996"
         style="fill:#4da1de;fill-opacity:1;fill-rule:nonzero;stroke:none;stroke-width:0.1"
         id="path294"
         inkscape:connector-curvature="0" /><path
         d="m 128.72851,97.62238 v 0 c 0.22,0.217 0.221,0.573996 0.004,0.793996 l -4.909,4.959004 c -0.217,0.218 -0.575,0.22 -0.794,0.004 -0.22,-0.218 -0.222,-0.576 -0.004,-0.795 l 4.908,-4.958 c 0.218,-0.22 0.576,-0.222 0.795,-0.004"
         style="fill:#4da1de;fill-opacity:1;fill-rule:nonzero;stroke:none;stroke-width:0.1"
         id="path296"
         inkscape:connector-curvature="0" /><path
         d="m 128.33351,97.52438 v 0 c 0.207,-0.095 0.453,-0.003 0.548,0.204 l 2.136,4.672 c 0.095,0.206 0.003,0.453 -0.204,0.548 -0.207,0.095 -0.453,0.003 -0.548,-0.204 l -2.136,-4.672004 c -0.095,-0.205996 -0.003,-0.452996 0.204,-0.547996"
         style="fill:#4da1de;fill-opacity:1;fill-rule:nonzero;stroke:none;stroke-width:0.1"
         id="path298"
         inkscape:connector-curvature="0" /><path
         d="m 236.64251,305.74238 h -0.925 v 108.994 h 0.925 v -108.994"
         style="fill:#3b3e52;fill-opacity:1;fill-rule:nonzero;stroke:none;stroke-width:0.1"
         id="path300"
         inkscape:connector-curvature="0" /><path
         d="m 241.11251,305.74238 h -0.926 v 108.994 h 0.926 v -108.994"
         style="fill:#3b3e52;fill-opacity:1;fill-rule:nonzero;stroke:none;stroke-width:0.1"
         id="path302"
         inkscape:connector-curvature="0" /><path
         d="m 245.58151,305.74238 h -0.926 v 108.994 h 0.926 v -108.994"
         style="fill:#3b3e52;fill-opacity:1;fill-rule:nonzero;stroke:none;stroke-width:0.1"
         id="path304"
         inkscape:connector-curvature="0" /><path
         d="m 250.05151,305.74238 h -0.926 v 108.994 h 0.926 v -108.994"
         style="fill:#3b3e52;fill-opacity:1;fill-rule:nonzero;stroke:none;stroke-width:0.1"
         id="path306"
         inkscape:connector-curvature="0" /><path
         d="m 247.28351,284.56838 c -0.105,-2.283 -1.288,-4.311 -3.058,-5.568 -0.208,-0.15 -0.427,-0.289 -0.655,-0.412 -0.883,-0.502 -1.882,-0.814 -2.942,-0.899 -0.324,-0.023 -0.644,-0.027 -0.96,-0.016 -0.262,0.016 -0.517,0.043 -0.772,0.085 -1.519,0.247 -2.88,0.964 -3.925,1.998 -0.185,0.181 -0.362,0.374 -0.524,0.578 -0.976,1.192 -1.574,2.703 -1.624,4.35 0,0.131 0.104,0.239 0.239,0.239 l 0.132,-0.042 0.011,-0.008 0.054,-0.054 1.758,-1.763 c 0.301,-0.3 0.629,-0.559 0.98,-0.767 0.227,-0.139 0.462,-0.258 0.701,-0.355 0.698,-0.289 1.45,-0.42 2.198,-0.389 0.259,0.011 0.517,0.042 0.772,0.092 0.258,0.051 0.512,0.12 0.763,0.209 0.139,0.05 0.282,0.108 0.416,0.173 0.236,0.104 0.463,0.232 0.683,0.378 0.285,0.189 0.555,0.409 0.806,0.659 h 0.004 c 2.02,2.025 2.02,5.299 0,7.323 l -1.743,1.743 c -0.154,0.154 -0.239,0.362 -0.239,0.578 v 7.677 c 0,0.143 0.011,0.282 0.034,0.417 0.193,1.214 1.223,2.178 2.484,2.186 0.702,0 1.338,-0.282 1.801,-0.741 0.377,-0.381 0.635,-0.882 0.712,-1.445 0.016,-0.112 0.024,-0.228 0.024,-0.344 v -9.543 c 0,-0.675 0.204,-1.33 0.59,-1.881 0.872,-1.258 1.357,-2.8 1.28,-4.458"
         style="fill:#25273f;fill-opacity:1;fill-rule:nonzero;stroke:none;stroke-width:0.1"
         id="path308"
         inkscape:connector-curvature="0" /><path
         d="m 245.41451,296.66938 v -2.506 h -5.055 v 2.506 h 5.055"
         style="fill:#1b1c27;fill-opacity:1;fill-rule:nonzero;stroke:none;stroke-width:0.1"
         id="path310"
         inkscape:connector-curvature="0" /><path
         d="m 245.96451,295.94038 h -5.786 c -0.347,0 -0.664,0.2 -0.813,0.513 l -4.419,9.23 c -0.287,0.599 0.15,1.292 0.815,1.292 h 14.621 c 0.664,0 1.1,-0.693 0.814,-1.292 l -4.419,-9.23 c -0.149,-0.313 -0.467,-0.513 -0.813,-0.513"
         style="fill:#3b3e52;fill-opacity:1;fill-rule:nonzero;stroke:none;stroke-width:0.1"
         id="path312"
         inkscape:connector-curvature="0" /><path
         d="m 237.28651,300.79538 2.079,-4.342 c 0.149,-0.313 0.466,-0.513 0.813,-0.513 h 1.118 l -2.024,4.855 h -1.986"
         style="fill:#ee8918;fill-opacity:1;fill-rule:nonzero;stroke:none;stroke-width:0.1"
         id="path314"
         inkscape:connector-curvature="0" /><path
         d="m 239.30751,300.79538 h -0.035 l 2.024,-4.855 h 2.079 l -2.024,4.855 h -2.044"
         style="fill:#ffffff;fill-opacity:1;fill-rule:nonzero;stroke:none;stroke-width:0.1"
         id="path316"
         inkscape:connector-curvature="0" /><path
         d="m 241.38651,300.79538 h -0.035 l 2.024,-4.855 h 2.079 l -2.024,4.855 h -2.044"
         style="fill:#ee8918;fill-opacity:1;fill-rule:nonzero;stroke:none;stroke-width:0.1"
         id="path318"
         inkscape:connector-curvature="0" /><path
         d="m 245.51051,300.79538 h -2.08 l 2.024,-4.855 h 0.51 c 0.346,0 0.664,0.2 0.813,0.513 l 0.29,0.605 -1.557,3.737"
         style="fill:#ffffff;fill-opacity:1;fill-rule:nonzero;stroke:none;stroke-width:0.1"
         id="path320"
         inkscape:connector-curvature="0" /><path
         d="m 248.17851,299.38038 -0.589,1.415 h -2.079 l 1.557,-3.737 1.111,2.322"
         style="fill:#ee8918;fill-opacity:1;fill-rule:nonzero;stroke:none;stroke-width:0.1"
         id="path322"
         inkscape:connector-curvature="0" /><path
         d="m 248.85551,300.79538 h -1.266 l 0.589,-1.415 z"
         style="fill:#ffffff;fill-opacity:1;fill-rule:nonzero;stroke:none;stroke-width:0.1"
         id="path324"
         inkscape:connector-curvature="0" /><path
         d="m 236.69851,281.93438 -1.727,-2.178 c -0.185,0.181 -0.362,0.374 -0.524,0.578 l 1.55,1.955 c 0.227,-0.139 0.462,-0.258 0.701,-0.355"
         style="fill:#1b1c27;fill-opacity:1;fill-rule:nonzero;stroke:none;stroke-width:0.1"
         id="path326"
         inkscape:connector-curvature="0" /><path
         d="m 244.22551,279.00038 c -0.208,-0.15 -0.427,-0.289 -0.655,-0.412 l -2.723,3.431 c 0.236,0.104 0.463,0.232 0.683,0.378 l 2.695,-3.397"
         style="fill:#1b1c27;fill-opacity:1;fill-rule:nonzero;stroke:none;stroke-width:0.1"
         id="path328"
         inkscape:connector-curvature="0" /><path
         d="m 239.66851,281.63738 v -3.964 c -0.262,0.016 -0.517,0.043 -0.772,0.085 v 3.787 c 0.259,0.011 0.517,0.042 0.772,0.092"
         style="fill:#1b1c27;fill-opacity:1;fill-rule:nonzero;stroke:none;stroke-width:0.1"
         id="path330"
         inkscape:connector-curvature="0" /><path
         d="m 224.94951,268.33738 -0.239,0.084 c -0.167,0.132 -0.195,0.374 -0.063,0.541 l 11.086,13.978 c 0.133,0.167 0.375,0.194 0.542,0.063 0.167,-0.133 0.194,-0.375 0.063,-0.542 l -11.086,-13.978 c -0.076,-0.096 -0.189,-0.146 -0.303,-0.146"
         style="fill:#ffffff;fill-opacity:1;fill-rule:nonzero;stroke:none;stroke-width:0.1"
         id="path332"
         inkscape:connector-curvature="0" /><path
         d="m 252.51951,268.33738 c -0.113,0 -0.225,0.05 -0.301,0.146 l -11.086,13.978 c -0.133,0.167 -0.105,0.409 0.062,0.542 0.167,0.132 0.409,0.104 0.542,-0.063 l 11.085,-13.978 c 0.133,-0.167 0.105,-0.409 -0.062,-0.541 l -0.24,-0.084"
         style="fill:#ffffff;fill-opacity:1;fill-rule:nonzero;stroke:none;stroke-width:0.1"
         id="path334"
         inkscape:connector-curvature="0" /><path
         d="m 238.89551,267.66238 c -0.213,0 -0.385,0.173 -0.385,0.386 v 13.881 c 0,0.213 0.172,0.386 0.385,0.386 0.213,0 0.386,-0.173 0.386,-0.386 v -13.881 c 0,-0.213 -0.173,-0.386 -0.386,-0.386"
         style="fill:#ffffff;fill-opacity:1;fill-rule:nonzero;stroke:none;stroke-width:0.1"
         id="path336"
         inkscape:connector-curvature="0" /><path
         d="m 278.27051,96.12538 h -71.927 c 0,0 13.319,4.826 13.319,37.589 h 45.302 c 0,-2.18 0.062,-4.248 0.175,-6.188 1.538,-27.192 13.131,-31.401 13.131,-31.401"
         style="fill:#c2c2d4;fill-opacity:1;fill-rule:nonzero;stroke:none;stroke-width:0.1"
         id="path338"
         inkscape:connector-curvature="0" /><path
         d="m 278.47451,94.86838 h -72.304 c -0.243,0 -0.44,0.197 -0.44,0.441 v 0.378 c 0,0.244 0.197,0.442 0.44,0.442 h 72.304 c 0.244,0 0.441,-0.198 0.441,-0.442 v -0.378 c 0,-0.244 -0.197,-0.441 -0.441,-0.441"
         style="fill:#c2c2d4;fill-opacity:1;fill-rule:nonzero;stroke:none;stroke-width:0.1"
         id="path340"
         inkscape:connector-curvature="0" /><path
         d="m 318.61051,224.82038 v -90.729 c 0,-4.448 -3.591,-8.039 -8.026,-8.039 h -135.462 c -4.448,0 -8.04,3.591 -8.04,8.039 v 90.729 c 0,3.502 2.243,6.476 5.368,7.56 0.832,0.302 1.727,0.466 2.672,0.466 h 135.462 c 4.435,0 8.026,-3.591 8.026,-8.026"
         style="fill:#deddee;fill-opacity:1;fill-rule:nonzero;stroke:none;stroke-width:0.1"
         id="path342"
         inkscape:connector-curvature="0" /><path
         d="m 318.60651,224.81838 v -84.261 h -151.524 v 84.261 c 0,0.109 0,0.22 0.006,0.324 0.006,0.111 0.012,0.221 0.018,0.325 0.012,0.11 0.018,0.215 0.03,0.319 0.031,0.215 0.062,0.423 0.105,0.631 0.061,0.307 0.141,0.613 0.239,0.908 0.031,0.098 0.068,0.196 0.104,0.294 0.031,0.098 0.068,0.196 0.111,0.288 0.239,0.57 0.545,1.103 0.901,1.6 0.239,0.332 0.502,0.638 0.785,0.932 0.852,0.864 1.9,1.539 3.071,1.944 0.313,0.11 0.631,0.208 0.956,0.282 0.215,0.042 0.435,0.085 0.656,0.116 0.209,0.024 0.417,0.049 0.626,0.055 0.129,0.006 0.257,0.012 0.386,0.012 h 135.487 c 0.558,0 1.11,-0.055 1.637,-0.165 0.258,-0.049 0.509,-0.116 0.761,-0.197 0.122,-0.036 0.251,-0.079 0.374,-0.122 0.864,-0.313 1.655,-0.773 2.347,-1.349 0.202,-0.165 0.393,-0.337 0.571,-0.521 1.453,-1.446 2.353,-3.457 2.353,-5.676"
         style="fill:#1b1c27;fill-opacity:1;fill-rule:nonzero;stroke:none;stroke-width:0.1"
         id="path344"
         inkscape:connector-curvature="0" /><path
         d="m 276.20851,96.12538 h -71.927 c 0,0 13.319,4.826 13.319,37.589 h 45.301 c 0,-2.18 0.063,-4.248 0.176,-6.188 1.537,-27.192 13.131,-31.401 13.131,-31.401"
         style="fill:#deddee;fill-opacity:1;fill-rule:nonzero;stroke:none;stroke-width:0.1"
         id="path346"
         inkscape:connector-curvature="0" /><path
         d="m 276.41251,94.86838 h -72.304 c -0.243,0 -0.441,0.197 -0.441,0.441 v 0.378 c 0,0.244 0.198,0.442 0.441,0.442 h 72.304 c 0.243,0 0.44,-0.198 0.44,-0.442 v -0.378 c 0,-0.244 -0.197,-0.441 -0.44,-0.441"
         style="fill:#c2c2d4;fill-opacity:1;fill-rule:nonzero;stroke:none;stroke-width:0.1"
         id="path348"
         inkscape:connector-curvature="0" /><path
         d="m 263.07751,126.13638 c -0.643,-0.189 -1.424,-0.29 -2.368,-0.29 -20.566,0 -23.477,-17.121 -30.243,-24.291 -3.088,-3.251004 -6.364,-4.751 -9.023,-5.43 h -17.162 c 0,0 13.319,4.826 13.319,37.589 h 45.301 c 0,-2.18 0.063,-5.637 0.176,-7.578"
         style="fill:#c2c2d4;fill-opacity:1;fill-rule:nonzero;stroke:none;stroke-width:0.1"
         id="path350"
         inkscape:connector-curvature="0" /><path
         d="m 316.02751,224.82038 v -90.729 c 0,-4.448 -3.592,-8.039 -8.027,-8.039 h -135.462 c -4.448,0 -8.039,3.591 -8.039,8.039 v 90.729 c 0,3.502 2.243,6.476 5.368,7.56 0.831,0.302 1.727,0.466 2.671,0.466 h 135.462 c 4.435,0 8.027,-3.591 8.027,-8.026"
         style="fill:#ffffff;fill-opacity:1;fill-rule:nonzero;stroke:none;stroke-width:0.1"
         id="path352"
         inkscape:connector-curvature="0" /><path
         d="m 316.02351,224.81838 v -84.261 h -151.525 v 84.261 c 0,0.109 0,0.22 0.006,0.324 0.007,0.111 0.013,0.221 0.019,0.325 0.012,0.11 0.018,0.215 0.03,0.319 0.031,0.215 0.062,0.423 0.105,0.631 0.061,0.307 0.141,0.613 0.239,0.908 0.03,0.098 0.067,0.196 0.104,0.294 0.031,0.098 0.068,0.196 0.11,0.288 0.239,0.57 0.546,1.103 0.901,1.6 0.24,0.332 0.503,0.638 0.785,0.932 0.852,0.864 1.901,1.539 3.072,1.944 0.312,0.11 0.631,0.208 0.956,0.282 0.215,0.042 0.435,0.085 0.656,0.116 0.209,0.024 0.417,0.049 0.625,0.055 0.129,0.006 0.258,0.012 0.386,0.012 h 135.488 c 0.558,0 1.11,-0.055 1.637,-0.165 0.258,-0.049 0.509,-0.116 0.76,-0.197 0.123,-0.036 0.252,-0.079 0.374,-0.122 0.865,-0.313 1.655,-0.773 2.348,-1.349 0.202,-0.165 0.393,-0.337 0.571,-0.521 1.452,-1.446 2.353,-3.457 2.353,-5.676"
         style="fill:#5ca7e0;fill-opacity:1;fill-rule:nonzero;stroke:none;stroke-width:0.1"
         id="path354"
         inkscape:connector-curvature="0" /><path
         d="m 243.54451,133.45438 c 0,-2.306 -1.869,-4.176 -4.176,-4.176 -2.306,0 -4.175,1.87 -4.175,4.176 0,2.306 1.869,4.176 4.175,4.176 2.307,0 4.176,-1.87 4.176,-4.176"
         style="fill:#deddee;fill-opacity:1;fill-rule:nonzero;stroke:none;stroke-width:0.1"
         id="path356"
         inkscape:connector-curvature="0" /><path
         d="m 309.72151,148.44238 h -138.927 v 76.376 c 0,0.943 0.779,1.728 1.723,1.728 h 135.463 c 0.956,0 1.741,-0.785 1.741,-1.728 v -76.376 m 3.949,82.052 c -0.178,0.184 -0.369,0.356 -0.571,0.521 -0.693,0.576 -1.49,1.03 -2.348,1.349 -0.122,0.043 -0.251,0.086 -0.374,0.122 -0.251,0.081 -0.502,0.142 -0.76,0.197 -0.527,0.11 -1.079,0.165 -1.637,0.165 h -135.488 c -0.128,0 -0.257,-0.006 -0.386,-0.012 -0.208,-0.006 -0.416,-0.031 -0.625,-0.055 -0.221,-0.031 -0.441,-0.074 -0.656,-0.116 -1.25,-0.266 -2.394,-0.832 -3.353,-1.614 l -0.001,-0.001 c -0.235,-0.192 -0.462,-0.394 -0.674,-0.611 -0.288,-0.288 -0.552,-0.6 -0.785,-0.932 -0.361,-0.49 -0.668,-1.03 -0.901,-1.6 -0.042,-0.092 -0.079,-0.19 -0.11,-0.288 -0.037,-0.098 -0.074,-0.196 -0.104,-0.294 -0.104,-0.295 -0.184,-0.595 -0.239,-0.908 -0.043,-0.208 -0.074,-0.416 -0.105,-0.631 -0.012,-0.104 -0.018,-0.209 -0.03,-0.319 -0.006,-0.104 -0.012,-0.214 -0.019,-0.325 -0.012,-0.104 -0.012,-0.215 -0.012,-0.324 v -84.261 h 151.531 v 84.261 c 0,2.219 -0.901,4.23 -2.353,5.676"
         style="fill:#25273f;fill-opacity:1;fill-rule:nonzero;stroke:none;stroke-width:0.1"
         id="path358"
         inkscape:connector-curvature="0" /><path
         d="m 302.04651,162.91038 h -119.763 c -2.936,0 -5.309,2.379 -5.309,5.309 v 58.327 h 130.38 v -58.327 c 0,-2.93 -2.378,-5.309 -5.308,-5.309"
         style="fill:#4386c6;fill-opacity:1;fill-rule:nonzero;stroke:none;stroke-width:0.1"
         id="path360"
         inkscape:connector-curvature="0" /><path
         d="m 176.97451,226.54638 h 130.38 v 6.30195 h -130.38 z"
         style="fill:#202131;fill-opacity:1;fill-rule:nonzero;stroke:none;stroke-width:0.1"
         id="path362"
         inkscape:connector-curvature="0" /><path
         d="m 303.98351,266.00438 v -90.887 c 0,-2.932 -2.376,-5.308 -5.308,-5.308 h -119.766 c -2.933,0 -5.309,2.376 -5.309,5.308 v 90.887 c 0,2.933 2.376,5.308 5.309,5.308 h 119.766 c 2.932,0 5.308,-2.375 5.308,-5.308"
         style="fill:#ebe8e7;fill-opacity:1;fill-rule:nonzero;stroke:none;stroke-width:0.1"
         id="path364"
         inkscape:connector-curvature="0" /><path
         d="m 303.98351,266.00438 v -18.123 h -130.383 v 18.123 c 0,2.933 2.376,5.308 5.309,5.308 h 119.766 c 2.932,0 5.308,-2.375 5.308,-5.308"
         style="fill:#ee8918;fill-opacity:1;fill-rule:nonzero;stroke:none;stroke-width:0.1"
         id="path366"
         inkscape:connector-curvature="0" /><path
         d="m 292.83351,255.89438 h -67.224 c -2.107,0 -3.816,1.709 -3.816,3.816 0,2.108 1.709,3.816 3.816,3.816 h 67.224 c 2.107,0 3.816,-1.708 3.816,-3.816 0,-2.107 -1.709,-3.816 -3.816,-3.816"
         style="fill:#ffffff;fill-opacity:1;fill-rule:nonzero;stroke:none;stroke-width:0.1"
         id="path368"
         inkscape:connector-curvature="0" /><path
         d="m 189.79451,259.89638 c 0,-2.068 -1.676,-3.744 -3.743,-3.744 -2.068,0 -3.744,1.676 -3.744,3.744 0,2.067 1.676,3.743 3.744,3.743 2.067,0 3.743,-1.676 3.743,-3.743"
         style="fill:#e82936;fill-opacity:1;fill-rule:nonzero;stroke:none;stroke-width:0.1"
         id="path370"
         inkscape:connector-curvature="0" /><path
         d="m 199.37551,259.89638 c 0,-2.068 -1.676,-3.744 -3.743,-3.744 -2.068,0 -3.744,1.676 -3.744,3.744 0,2.067 1.676,3.743 3.744,3.743 2.067,0 3.743,-1.676 3.743,-3.743"
         style="fill:#ead54a;fill-opacity:1;fill-rule:nonzero;stroke:none;stroke-width:0.1"
         id="path372"
         inkscape:connector-curvature="0" /><path
         d="m 208.95651,259.89638 c 0,-2.068 -1.676,-3.744 -3.744,-3.744 -2.067,0 -3.743,1.676 -3.743,3.744 0,2.067 1.676,3.743 3.743,3.743 2.068,0 3.744,-1.676 3.744,-3.743"
         style="fill:#66c654;fill-opacity:1;fill-rule:nonzero;stroke:none;stroke-width:0.1"
         id="path374"
         inkscape:connector-curvature="0" /><path
         d="m 234.07051,186.53738 h -46.485 c -2.791,0 -5.053,2.262 -5.053,5.053 v 38.401 c 0,2.79 2.262,5.053 5.053,5.053 h 46.485 c 2.79,0 5.052,-2.263 5.052,-5.053 v -38.401 c 0,-2.791 -2.262,-5.053 -5.052,-5.053"
         style="fill:#d9cccc;fill-opacity:1;fill-rule:nonzero;stroke:none;stroke-width:0.1"
         id="path376"
         inkscape:connector-curvature="0" /><path
         d="m 232.42351,188.18438 h -46.485 c -2.791,0 -5.053,2.262 -5.053,5.053 v 38.4 c 0,2.791 2.262,5.053 5.053,5.053 h 46.485 c 2.791,0 5.053,-2.262 5.053,-5.053 v -38.4 c 0,-2.791 -2.262,-5.053 -5.053,-5.053"
         style="fill:#ffffff;fill-opacity:1;fill-rule:nonzero;stroke:none;stroke-width:0.1"
         id="path378"
         inkscape:connector-curvature="0" /><path
         d="m 297.31851,229.84138 h -54.111 c -0.685,0 -1.24,0.555 -1.24,1.24 v 0.44 c 0,0.685 0.555,1.239 1.24,1.239 h 54.111 c 0.685,0 1.239,-0.554 1.239,-1.239 v -0.44 c 0,-0.685 -0.554,-1.24 -1.239,-1.24"
         style="fill:#ffffff;fill-opacity:1;fill-rule:nonzero;stroke:none;stroke-width:0.1"
         id="path380"
         inkscape:connector-curvature="0" /><path
         d="m 297.31851,222.80538 h -54.111 c -0.685,0 -1.24,0.555 -1.24,1.239 v 0.441 c 0,0.684 0.555,1.239 1.24,1.239 h 54.111 c 0.685,0 1.239,-0.555 1.239,-1.239 v -0.441 c 0,-0.684 -0.554,-1.239 -1.239,-1.239"
         style="fill:#ffffff;fill-opacity:1;fill-rule:nonzero;stroke:none;stroke-width:0.1"
         id="path382"
         inkscape:connector-curvature="0" /><path
         d="m 297.31851,215.76838 h -54.111 c -0.685,0 -1.24,0.555 -1.24,1.24 v 0.44 c 0,0.684 0.555,1.24 1.24,1.24 h 54.111 c 0.685,0 1.239,-0.556 1.239,-1.24 v -0.44 c 0,-0.685 -0.554,-1.24 -1.239,-1.24"
         style="fill:#ffffff;fill-opacity:1;fill-rule:nonzero;stroke:none;stroke-width:0.1"
         id="path384"
         inkscape:connector-curvature="0" /><path
         d="m 297.31851,208.73238 h -54.111 c -0.685,0 -1.24,0.555 -1.24,1.239 v 0.441 c 0,0.684 0.555,1.24 1.24,1.24 h 54.111 c 0.685,0 1.239,-0.556 1.239,-1.24 v -0.441 c 0,-0.684 -0.554,-1.239 -1.239,-1.239"
         style="fill:#ffffff;fill-opacity:1;fill-rule:nonzero;stroke:none;stroke-width:0.1"
         id="path386"
         inkscape:connector-curvature="0" /><path
         d="m 297.31851,201.69538 h -54.111 c -0.685,0 -1.24,0.556 -1.24,1.24 v 0.44 c 0,0.685 0.555,1.24 1.24,1.24 h 54.111 c 0.685,0 1.239,-0.555 1.239,-1.24 v -0.44 c 0,-0.684 -0.554,-1.24 -1.239,-1.24"
         style="fill:#ffffff;fill-opacity:1;fill-rule:nonzero;stroke:none;stroke-width:0.1"
         id="path388"
         inkscape:connector-curvature="0" /><path
         d="m 297.31851,181.36238 h -54.111 c -0.685,0 -1.24,0.555 -1.24,1.24 v 0.44 c 0,0.685 0.555,1.239 1.24,1.239 h 54.111 c 0.685,0 1.239,-0.554 1.239,-1.239 v -0.44 c 0,-0.685 -0.554,-1.24 -1.239,-1.24"
         style="fill:#ffffff;fill-opacity:1;fill-rule:nonzero;stroke:none;stroke-width:0.1"
         id="path390"
         inkscape:connector-curvature="0" /><path
         d="m 297.09751,174.21038 h -114.329 c -0.806,0 -1.46,0.653 -1.46,1.46 0,0.806 0.654,1.459 1.46,1.459 h 114.329 c 0.807,0 1.46,-0.653 1.46,-1.459 0,-0.807 -0.653,-1.46 -1.46,-1.46"
         style="fill:#ffffff;fill-opacity:1;fill-rule:nonzero;stroke:none;stroke-width:0.1"
         id="path392"
         inkscape:connector-curvature="0" /><path
         d="m 252.85451,193.01238 c 0,-2.624 -2.127,-4.751 -4.751,-4.751 -2.624,0 -4.752,2.127 -4.752,4.751 0,2.624 2.128,4.751 4.752,4.751 2.624,0 4.751,-2.127 4.751,-4.751"
         style="fill:#ee8918;fill-opacity:1;fill-rule:nonzero;stroke:none;stroke-width:0.1"
         id="path394"
         inkscape:connector-curvature="0" /><path
         d="m 275.91251,193.01238 c 0,-2.624 -2.127,-4.751 -4.752,-4.751 -2.623,0 -4.751,2.127 -4.751,4.751 0,2.624 2.128,4.751 4.751,4.751 2.625,0 4.752,-2.127 4.752,-4.751"
         style="fill:#ffffff;fill-opacity:1;fill-rule:nonzero;stroke:none;stroke-width:0.1"
         id="path396"
         inkscape:connector-curvature="0" /><path
         d="m 298.96951,193.01238 c 0,-2.624 -2.127,-4.751 -4.751,-4.751 -2.624,0 -4.751,2.127 -4.751,4.751 0,2.624 2.127,4.751 4.751,4.751 2.624,0 4.751,-2.127 4.751,-4.751"
         style="fill:#ee8918;fill-opacity:1;fill-rule:nonzero;stroke:none;stroke-width:0.1"
         id="path398"
         inkscape:connector-curvature="0" /><path
         d="m 303.98351,247.87738 v -2.397 h -130.383 v 2.397 h 130.383"
         style="fill:#d9cccc;fill-opacity:1;fill-rule:nonzero;stroke:none;stroke-width:0.1"
         id="path400"
         inkscape:connector-curvature="0" /><path
         d="M 454.86351,84.29238 H 28.782914 c -2.9227,0 -5.293,2.37 -5.293,5.293 0,2.923 2.3703,5.293 5.293,5.293 H 454.86351 c 2.924,0 5.293,-2.37 5.293,-5.293 0,-2.923 -2.369,-5.293 -5.293,-5.293"
         style="fill:#4da1de;fill-opacity:1;fill-rule:nonzero;stroke:none;stroke-width:0.1"
         id="path438"
         inkscape:connector-curvature="0" /><path
         d="m 326.32351,277.98638 h -0.5 c -0.002,-0.828 -0.672,-1.498 -1.5,-1.5 -0.828,0.002 -1.499,0.672 -1.5,1.5 10e-4,0.828 0.672,1.499 1.5,1.5 0.828,-10e-4 1.498,-0.672 1.5,-1.5 h 0.5 0.5 c 0,1.381 -1.119,2.5 -2.5,2.5 -1.381,0 -2.5,-1.119 -2.5,-2.5 0,-1.381 1.119,-2.5 2.5,-2.5 1.381,0 2.5,1.119 2.5,2.5 h -0.5"
         style="fill:#ffffff;fill-opacity:1;fill-rule:nonzero;stroke:none;stroke-width:0.1"
         id="path440"
         inkscape:connector-curvature="0" /><path
         d="m 144.32351,252.98638 h -0.5 c -0.002,-0.828 -0.672,-1.498 -1.5,-1.5 -0.828,0.002 -1.499,0.672 -1.5,1.5 0.001,0.828 0.672,1.499 1.5,1.5 0.828,-0.001 1.498,-0.672 1.5,-1.5 h 0.5 0.5 c 0,1.381 -1.119,2.5 -2.5,2.5 -1.381,0 -2.5,-1.119 -2.5,-2.5 0,-1.381 1.119,-2.5 2.5,-2.5 1.381,0 2.5,1.119 2.5,2.5 h -0.5"
         style="fill:#ffffff;fill-opacity:1;fill-rule:nonzero;stroke:none;stroke-width:0.1"
         id="path442"
         inkscape:connector-curvature="0" /><path
         d="m 194.32351,159.98638 h -0.5 c -0.002,-0.828 -0.672,-1.498 -1.5,-1.5 -0.828,0.002 -1.499,0.672 -1.5,1.5 0.001,0.828 0.672,1.499 1.5,1.5 0.828,-0.001 1.498,-0.672 1.5,-1.5 h 0.5 0.5 c 0,1.381 -1.119,2.5 -2.5,2.5 -1.381,0 -2.5,-1.119 -2.5,-2.5 0,-1.381 1.119,-2.5 2.5,-2.5 1.381,0 2.5,1.119 2.5,2.5 h -0.5"
         style="fill:#ffffff;fill-opacity:1;fill-rule:nonzero;stroke:none;stroke-width:0.1"
         id="path444"
         inkscape:connector-curvature="0" /><path
         d="m 329.32351,221.98638 h -0.5 c -0.002,-0.828 -0.672,-1.498 -1.5,-1.5 -0.828,0.002 -1.499,0.672 -1.5,1.5 10e-4,0.828 0.672,1.499 1.5,1.5 0.828,-0.001 1.498,-0.672 1.5,-1.5 h 0.5 0.5 c 0,1.381 -1.119,2.5 -2.5,2.5 -1.381,0 -2.5,-1.119 -2.5,-2.5 0,-1.381 1.119,-2.5 2.5,-2.5 1.381,0 2.5,1.119 2.5,2.5 h -0.5"
         style="fill:#ffffff;fill-opacity:1;fill-rule:nonzero;stroke:none;stroke-width:0.1"
         id="path446"
         inkscape:connector-curvature="0" /><path
         d="m 269.96951,289.50738 5.188,-5.187 c 0.195,-0.195 0.512,-0.195 0.707,0 0.195,0.195 0.195,0.512 0,0.707 l -5.187,5.188 c -0.196,0.195 -0.512,0.195 -0.708,0 -0.195,-0.196 -0.195,-0.512 0,-0.708"
         style="fill:#ffffff;fill-opacity:1;fill-rule:nonzero;stroke:none;stroke-width:0.1"
         id="path448"
         inkscape:connector-curvature="0" /><path
         d="m 275.15751,290.21538 -5.188,-5.188 c -0.195,-0.195 -0.195,-0.512 0,-0.707 0.196,-0.195 0.512,-0.195 0.708,0 l 5.187,5.187 c 0.195,0.196 0.195,0.512 0,0.708 -0.195,0.195 -0.512,0.195 -0.707,0"
         style="fill:#ffffff;fill-opacity:1;fill-rule:nonzero;stroke:none;stroke-width:0.1"
         id="path450"
         inkscape:connector-curvature="0" /><path
         d="m 168.80351,292.67438 3.52,-3.521 c 0.196,-0.195 0.512,-0.195 0.708,0 0.195,0.196 0.195,0.512 0,0.708 l -3.521,3.52 c -0.195,0.195 -0.512,0.195 -0.707,0 -0.195,-0.195 -0.195,-0.512 0,-0.707"
         style="fill:#ffffff;fill-opacity:1;fill-rule:nonzero;stroke:none;stroke-width:0.1"
         id="path452"
         inkscape:connector-curvature="0" /><path
         d="m 172.32351,293.38138 -3.52,-3.52 c -0.195,-0.196 -0.195,-0.512 0,-0.708 0.195,-0.195 0.512,-0.195 0.707,0 l 3.521,3.521 c 0.195,0.195 0.195,0.512 0,0.707 -0.196,0.195 -0.512,0.195 -0.708,0"
         style="fill:#ffffff;fill-opacity:1;fill-rule:nonzero;stroke:none;stroke-width:0.1"
         id="path454"
         inkscape:connector-curvature="0" /><path
         d="m 144.80351,186.67438 3.52,-3.521 c 0.196,-0.195 0.512,-0.195 0.708,0 0.195,0.196 0.195,0.512 0,0.708 l -3.521,3.52 c -0.195,0.195 -0.512,0.195 -0.707,0 -0.195,-0.195 -0.195,-0.512 0,-0.707"
         style="fill:#ffffff;fill-opacity:1;fill-rule:nonzero;stroke:none;stroke-width:0.1"
         id="path456"
         inkscape:connector-curvature="0" /><path
         d="m 148.32351,187.38138 -3.52,-3.52 c -0.195,-0.196 -0.195,-0.512 0,-0.708 0.195,-0.195 0.512,-0.195 0.707,0 l 3.521,3.521 c 0.195,0.195 0.195,0.512 0,0.707 -0.196,0.195 -0.512,0.195 -0.708,0"
         style="fill:#ffffff;fill-opacity:1;fill-rule:nonzero;stroke:none;stroke-width:0.1"
         id="path458"
         inkscape:connector-curvature="0" /><path
         d="m 311.80251,177.67438 3.522,-3.521 c 0.195,-0.195 0.512,-0.195 0.707,0 0.195,0.196 0.195,0.512 0,0.708 l -3.522,3.52 c -0.195,0.195 -0.511,0.195 -0.707,0 -0.195,-0.195 -0.195,-0.512 0,-0.707"
         style="fill:#ffffff;fill-opacity:1;fill-rule:nonzero;stroke:none;stroke-width:0.1"
         id="path460"
         inkscape:connector-curvature="0" /><path
         d="m 315.32451,178.38138 -3.522,-3.52 c -0.195,-0.196 -0.195,-0.512 0,-0.708 0.196,-0.195 0.512,-0.195 0.707,0 l 3.522,3.521 c 0.195,0.195 0.195,0.512 0,0.707 -0.195,0.195 -0.512,0.195 -0.707,0"
         style="fill:#ffffff;fill-opacity:1;fill-rule:nonzero;stroke:none;stroke-width:0.1"
         id="path462"
         inkscape:connector-curvature="0" /><path
         d="m 225.82351,331.73638 v -30 c 0,-0.276 0.224,-0.5 0.5,-0.5 0.276,0 0.5,0.224 0.5,0.5 v 30 c 0,0.276 -0.224,0.5 -0.5,0.5 -0.276,0 -0.5,-0.224 -0.5,-0.5"
         style="fill:#ffffff;fill-opacity:1;fill-rule:nonzero;stroke:none;stroke-width:0.1"
         id="path464"
         inkscape:connector-curvature="0" /><path
         d="m 221.82351,319.73638 v -18 c 0,-0.276 0.224,-0.5 0.5,-0.5 0.276,0 0.5,0.224 0.5,0.5 v 18 c 0,0.276 -0.224,0.5 -0.5,0.5 -0.276,0 -0.5,-0.224 -0.5,-0.5"
         style="fill:#ffffff;fill-opacity:1;fill-rule:nonzero;stroke:none;stroke-width:0.1"
         id="path466"
         inkscape:connector-curvature="0" /><path
         d="m 257.82351,338.73638 v -37 c 0,-0.276 0.224,-0.5 0.5,-0.5 0.276,0 0.5,0.224 0.5,0.5 v 37 c 0,0.276 -0.224,0.5 -0.5,0.5 -0.276,0 -0.5,-0.224 -0.5,-0.5"
         style="fill:#ffffff;fill-opacity:1;fill-rule:nonzero;stroke:none;stroke-width:0.1"
         id="path468"
         inkscape:connector-curvature="0" /><path
         d="m 261.82351,314.73638 v -13 c 0,-0.276 0.224,-0.5 0.5,-0.5 0.276,0 0.5,0.224 0.5,0.5 v 13 c 0,0.276 -0.224,0.5 -0.5,0.5 -0.276,0 -0.5,-0.224 -0.5,-0.5"
         style="fill:#ffffff;fill-opacity:1;fill-rule:nonzero;stroke:none;stroke-width:0.1"
         id="path470"
         inkscape:connector-curvature="0" /></g></g></svg>